<?xml version="1.0" encoding="utf-8" standalone="no"?>
<!DOCTYPE svg PUBLIC "-//W3C//DTD SVG 1.1//EN"
  "http://www.w3.org/Graphics/SVG/1.1/DTD/svg11.dtd">
<!-- Created with matplotlib (http://matplotlib.org/) -->
<svg height="288pt" version="1.1" viewBox="0 0 432 288" width="432pt" xmlns="http://www.w3.org/2000/svg" xmlns:xlink="http://www.w3.org/1999/xlink">
 <defs>
  <style type="text/css">
*{stroke-linecap:butt;stroke-linejoin:round;stroke-miterlimit:100000;}
  </style>
 </defs>
 <g id="figure_1">
  <g id="patch_1">
   <path d="M 0 288 
L 432 288 
L 432 0 
L 0 0 
z
" style="fill:#ffffff;"/>
  </g>
  <g id="axes_1">
   <g id="patch_2">
    <path d="M 54 252 
L 388.8 252 
L 388.8 28.8 
L 54 28.8 
z
" style="fill:#ffffff;"/>
   </g>
   <g id="line2d_1">
    <path clip-path="url(#p21cf45ac28)" d="M 176.76 52.05 
L 176.76 65.399282 
L 176.955789 66.734211 
L 180.551196 80.12799 
L 188.151388 99.417703 
L 191.782392 112.67799 
L 198.90201 121.577512 
L 199.880957 122.133732 
L 209.49244 126.138517 
L 210.560383 126.183014 
L 231.919234 108.383971 
L 232.844785 107.316029 
L 239.964402 93.966746 
L 244.200574 91.274641 
L 254.168038 85.044976 
L 255.235981 84.822488 
L 262.337799 89.294498 
L 266.253589 99.350957 
L 269.813397 112.833732 
L 273.373206 135.082536 
L 273.230813 136.995933 
L 270.026986 153.015072 
L 269.493014 155.017464 
L 258.813589 181.716029 
L 257.176077 183.673923 
L 238.077703 202.652153 
L 225.262392 214.666507 
L 221.738182 216.490909 
L 205.879234 224.500478 
L 191.64 233.4 
L 191.64 233.4 
" style="fill:none;stroke:#0000ff;stroke-linecap:square;"/>
   </g>
   <g id="patch_3">
    <path d="M 54 28.8 
L 388.8 28.8 
" style="fill:none;stroke:#000000;stroke-linecap:square;stroke-linejoin:miter;"/>
   </g>
   <g id="patch_4">
    <path d="M 388.8 252 
L 388.8 28.8 
" style="fill:none;stroke:#000000;stroke-linecap:square;stroke-linejoin:miter;"/>
   </g>
   <g id="patch_5">
    <path d="M 54 252 
L 388.8 252 
" style="fill:none;stroke:#000000;stroke-linecap:square;stroke-linejoin:miter;"/>
   </g>
   <g id="patch_6">
    <path d="M 54 252 
L 54 28.8 
" style="fill:none;stroke:#000000;stroke-linecap:square;stroke-linejoin:miter;"/>
   </g>
  </g>
 </g>
 <defs>
  <clipPath id="p21cf45ac28">
   <rect height="223.2" width="334.8" x="54.0" y="28.8"/>
  </clipPath>
 </defs>
</svg>
