<?xml version="1.0" encoding="utf-8" standalone="no"?>
<!DOCTYPE svg PUBLIC "-//W3C//DTD SVG 1.1//EN"
  "http://www.w3.org/Graphics/SVG/1.1/DTD/svg11.dtd">
<!-- Created with matplotlib (http://matplotlib.org/) -->
<svg height="288pt" version="1.1" viewBox="0 0 432 288" width="432pt" xmlns="http://www.w3.org/2000/svg" xmlns:xlink="http://www.w3.org/1999/xlink">
 <defs>
  <style type="text/css">
*{stroke-linecap:butt;stroke-linejoin:round;stroke-miterlimit:100000;}
  </style>
 </defs>
 <g id="figure_1">
  <g id="patch_1">
   <path d="M 0 288 
L 432 288 
L 432 0 
L 0 0 
z
" style="fill:#ffffff;"/>
  </g>
  <g id="axes_1">
   <g id="patch_2">
    <path d="M 12.96 275.04 
L 419.04 275.04 
L 419.04 12.96 
L 12.96 12.96 
z
" style="fill:#ffffff;"/>
   </g>
   <g id="line2d_1">
    <path clip-path="url(#pb60ab0da34)" d="M 292.704 35.712 
L 273.898953 45.190228 
L 250.884725 58.877638 
L 233.957154 67.356564 
L 219.785235 76.865074 
L 184.294872 103.513128 
L 175.815946 111.992054 
L 174.968054 113.051919 
L 166.489128 125.770309 
L 165.580671 129.101315 
L 161.765154 144.454228 
L 157.101745 167.52902 
L 152.044671 187.363651 
L 143.565745 216.918765 
L 130.272 256.8 
L 130.272 256.8 
" style="fill:none;stroke:#000000;stroke-linecap:square;stroke-width:8.0;"/>
   </g>
   <g id="patch_3">
    <path d="M 12.96 12.96 
L 419.04 12.96 
" style="fill:none;stroke:#000000;stroke-linecap:square;stroke-linejoin:miter;"/>
   </g>
   <g id="patch_4">
    <path d="M 419.04 275.04 
L 419.04 12.96 
" style="fill:none;stroke:#000000;stroke-linecap:square;stroke-linejoin:miter;"/>
   </g>
   <g id="patch_5">
    <path d="M 12.96 275.04 
L 419.04 275.04 
" style="fill:none;stroke:#000000;stroke-linecap:square;stroke-linejoin:miter;"/>
   </g>
   <g id="patch_6">
    <path d="M 12.96 275.04 
L 12.96 12.96 
" style="fill:none;stroke:#000000;stroke-linecap:square;stroke-linejoin:miter;"/>
   </g>
  </g>
 </g>
 <defs>
  <clipPath id="pb60ab0da34">
   <rect height="262.08" width="406.08" x="12.96" y="12.96"/>
  </clipPath>
 </defs>
</svg>
