<?xml version="1.0" encoding="utf-8" standalone="no"?>
<!DOCTYPE svg PUBLIC "-//W3C//DTD SVG 1.1//EN"
  "http://www.w3.org/Graphics/SVG/1.1/DTD/svg11.dtd">
<!-- Created with matplotlib (http://matplotlib.org/) -->
<svg height="288pt" version="1.1" viewBox="0 0 432 288" width="432pt" xmlns="http://www.w3.org/2000/svg" xmlns:xlink="http://www.w3.org/1999/xlink">
 <defs>
  <style type="text/css">
*{stroke-linecap:butt;stroke-linejoin:round;stroke-miterlimit:100000;}
  </style>
 </defs>
 <g id="figure_1">
  <g id="patch_1">
   <path d="M 0 288 
L 432 288 
L 432 0 
L 0 0 
z
" style="fill:#ffffff;"/>
  </g>
  <g id="axes_1">
   <g id="patch_2">
    <path d="M 12.96 275.04 
L 419.04 275.04 
L 419.04 12.96 
L 12.96 12.96 
z
" style="fill:#ffffff;"/>
   </g>
   <g id="line2d_1">
    <path clip-path="url(#pd6ee62ccce)" d="M 275.904 57.888 
L 268.686651 72.322699 
L 267.243181 76.382458 
L 253.530217 117.521349 
L 253.44 121.851759 
L 253.44 139.173398 
L 253.800867 141.338602 
L 261.018217 162.810217 
L 268.235566 170.027566 
L 269.679036 172.734072 
L 275.452916 184.281831 
L 276.174651 185.995952 
L 283.392 207.648 
L 283.392 229.300048 
L 282.940916 231.465253 
L 276.445301 250.952096 
L 275.543133 252.756434 
L 261.108434 259.973783 
L 254.161735 261.417253 
L 225.292337 267.191133 
L 222.04453 267.552 
L 196.062072 267.552 
L 193.265349 267.191133 
L 171.613301 238.321735 
L 169.448096 234.352193 
L 149.961253 195.378506 
L 148.337349 191.048096 
L 141.12 147.744 
L 148.337349 97.222554 
L 149.510169 93.072578 
L 162.501398 60.594506 
L 164.305735 57.346699 
L 193.175133 35.694651 
L 198.949012 32.717494 
L 222.04453 21.169735 
L 224.93147 20.087133 
L 250.913928 13.591518 
L 253.710651 13.050217 
L 275.362699 20.267566 
L 276.445301 21.530602 
L 282.940916 34.521831 
L 283.121349 36.235952 
L 275.904 57.888 
L 275.904 57.888 
" style="fill:none;stroke:#0099ff;stroke-linecap:square;"/>
   </g>
   <g id="patch_3">
    <path d="M 12.96 12.96 
L 419.04 12.96 
" style="fill:none;stroke:#000000;stroke-linecap:square;stroke-linejoin:miter;"/>
   </g>
   <g id="patch_4">
    <path d="M 419.04 275.04 
L 419.04 12.96 
" style="fill:none;stroke:#000000;stroke-linecap:square;stroke-linejoin:miter;"/>
   </g>
   <g id="patch_5">
    <path d="M 12.96 275.04 
L 419.04 275.04 
" style="fill:none;stroke:#000000;stroke-linecap:square;stroke-linejoin:miter;"/>
   </g>
   <g id="patch_6">
    <path d="M 12.96 275.04 
L 12.96 12.96 
" style="fill:none;stroke:#000000;stroke-linecap:square;stroke-linejoin:miter;"/>
   </g>
  </g>
 </g>
 <defs>
  <clipPath id="pd6ee62ccce">
   <rect height="262.08" width="406.08" x="12.96" y="12.96"/>
  </clipPath>
 </defs>
</svg>
