<?xml version="1.0" encoding="utf-8" standalone="no"?>
<!DOCTYPE svg PUBLIC "-//W3C//DTD SVG 1.1//EN"
  "http://www.w3.org/Graphics/SVG/1.1/DTD/svg11.dtd">
<!-- Created with matplotlib (http://matplotlib.org/) -->
<svg height="288pt" version="1.1" viewBox="0 0 432 288" width="432pt" xmlns="http://www.w3.org/2000/svg" xmlns:xlink="http://www.w3.org/1999/xlink">
 <defs>
  <style type="text/css">
*{stroke-linecap:butt;stroke-linejoin:round;stroke-miterlimit:100000;}
  </style>
 </defs>
 <g id="figure_1">
  <g id="patch_1">
   <path d="M 0 288 
L 432 288 
L 432 0 
L 0 0 
z
" style="fill:#ffffff;"/>
  </g>
  <g id="axes_1">
   <g id="patch_2">
    <path d="M 54 252 
L 388.8 252 
L 388.8 28.8 
L 54 28.8 
z
" style="fill:#ffffff;"/>
   </g>
   <g id="line2d_1">
    <path clip-path="url(#pfb06d1c143)" d="M 93.857143 36.771429 
L 100.028571 59.914286 
L 101.88 68.914286 
L 132.12 220.114286 
L 144.462857 227.828571 
L 146.108571 227.571429 
L 162.771429 220.628571 
L 164.417143 219.342857 
L 189.102857 173.057143 
L 189.925714 170.742857 
L 195.48 149.914286 
L 196.302857 148.114286 
L 208.645714 140.4 
L 220.988571 155.828571 
L 221.811429 157.885714 
L 240.325714 227.314286 
L 241.56 230.657143 
L 246.497143 243 
L 247.525714 244.285714 
L 266.04 252 
L 278.382857 236.571429 
L 279.205714 235.028571 
L 285.377143 219.342857 
L 291.548571 196.2 
L 303.891429 173.057143 
L 306.36 167.142857 
L 329.811429 108.514286 
L 336.6 75.085714 
L 342.771429 52.2 
L 348.942857 36.771429 
L 348.942857 36.771429 
" style="fill:none;stroke:#0000ff;stroke-linecap:square;"/>
   </g>
   <g id="patch_3">
    <path d="M 54 28.8 
L 388.8 28.8 
" style="fill:none;stroke:#000000;stroke-linecap:square;stroke-linejoin:miter;"/>
   </g>
   <g id="patch_4">
    <path d="M 388.8 252 
L 388.8 28.8 
" style="fill:none;stroke:#000000;stroke-linecap:square;stroke-linejoin:miter;"/>
   </g>
   <g id="patch_5">
    <path d="M 54 252 
L 388.8 252 
" style="fill:none;stroke:#000000;stroke-linecap:square;stroke-linejoin:miter;"/>
   </g>
   <g id="patch_6">
    <path d="M 54 252 
L 54 28.8 
" style="fill:none;stroke:#000000;stroke-linecap:square;stroke-linejoin:miter;"/>
   </g>
  </g>
 </g>
 <defs>
  <clipPath id="pfb06d1c143">
   <rect height="223.2" width="334.8" x="54.0" y="28.8"/>
  </clipPath>
 </defs>
</svg>
