<?xml version="1.0" encoding="utf-8" standalone="no"?>
<!DOCTYPE svg PUBLIC "-//W3C//DTD SVG 1.1//EN"
  "http://www.w3.org/Graphics/SVG/1.1/DTD/svg11.dtd">
<!-- Created with matplotlib (http://matplotlib.org/) -->
<svg height="288pt" version="1.1" viewBox="0 0 432 288" width="432pt" xmlns="http://www.w3.org/2000/svg" xmlns:xlink="http://www.w3.org/1999/xlink">
 <defs>
  <style type="text/css">
*{stroke-linecap:butt;stroke-linejoin:round;stroke-miterlimit:100000;}
  </style>
 </defs>
 <g id="figure_1">
  <g id="patch_1">
   <path d="M 0 288 
L 432 288 
L 432 0 
L 0 0 
z
" style="fill:#ffffff;"/>
  </g>
  <g id="axes_1">
   <g id="patch_2">
    <path d="M 54 252 
L 388.8 252 
L 388.8 28.8 
L 54 28.8 
z
" style="fill:#ffffff;"/>
   </g>
   <g id="line2d_1">
    <path clip-path="url(#p13fa837cf2)" d="M 119.365714 44.742857 
L 137.832344 37.048428 
L 139.285052 37.263872 
L 150.36503 44.188858 
L 151.940849 45.389189 
L 176.563023 68.472477 
L 181.585946 74.689575 
L 188.972598 83.92289 
L 190.893127 85.030888 
L 213.053083 91.955874 
L 215.39219 92.41754 
L 252.32545 77.028682 
L 253.876646 75.889906 
L 266.113867 60.501048 
L 272.26941 45.11219 
L 274.288428 44.158081 
L 296.448384 37.233094 
L 298.664379 37.69476 
L 329.417474 76.136128 
L 330.230006 79.244677 
L 335.769994 113.869608 
L 335.794617 118.209266 
L 323.48353 172.07027 
L 319.814826 176.810039 
L 286.574892 218.359956 
L 284.137297 220.483618 
L 241.048494 235.872477 
L 233.587976 237.503696 
L 204.041368 243.659239 
L 200.348042 243.628461 
L 167.108108 236.703475 
L 163.61176 235.68781 
L 138.989586 212.604523 
L 134.065152 206.602868 
L 114.367413 181.980695 
L 112.717728 178.564368 
L 100.406641 101.620077 
L 100.677485 98.326862 
L 106.217474 70.626917 
L 107.054628 67.826145 
L 119.365714 44.742857 
L 119.365714 44.742857 
" style="fill:none;stroke:#0000ff;stroke-linecap:square;"/>
   </g>
   <g id="patch_3">
    <path d="M 54 28.8 
L 388.8 28.8 
" style="fill:none;stroke:#000000;stroke-linecap:square;stroke-linejoin:miter;"/>
   </g>
   <g id="patch_4">
    <path d="M 388.8 252 
L 388.8 28.8 
" style="fill:none;stroke:#000000;stroke-linecap:square;stroke-linejoin:miter;"/>
   </g>
   <g id="patch_5">
    <path d="M 54 252 
L 388.8 252 
" style="fill:none;stroke:#000000;stroke-linecap:square;stroke-linejoin:miter;"/>
   </g>
   <g id="patch_6">
    <path d="M 54 252 
L 54 28.8 
" style="fill:none;stroke:#000000;stroke-linecap:square;stroke-linejoin:miter;"/>
   </g>
  </g>
 </g>
 <defs>
  <clipPath id="p13fa837cf2">
   <rect height="223.2" width="334.8" x="54.0" y="28.8"/>
  </clipPath>
 </defs>
</svg>
