<?xml version="1.0" encoding="utf-8" standalone="no"?>
<!DOCTYPE svg PUBLIC "-//W3C//DTD SVG 1.1//EN"
  "http://www.w3.org/Graphics/SVG/1.1/DTD/svg11.dtd">
<!-- Created with matplotlib (http://matplotlib.org/) -->
<svg height="288pt" version="1.1" viewBox="0 0 432 288" width="432pt" xmlns="http://www.w3.org/2000/svg" xmlns:xlink="http://www.w3.org/1999/xlink">
 <defs>
  <style type="text/css">
*{stroke-linecap:butt;stroke-linejoin:round;stroke-miterlimit:100000;}
  </style>
 </defs>
 <g id="figure_1">
  <g id="patch_1">
   <path d="M 0 288 
L 432 288 
L 432 0 
L 0 0 
z
" style="fill:#ffffff;"/>
  </g>
  <g id="axes_1">
   <g id="patch_2">
    <path d="M 12.96 275.04 
L 419.04 275.04 
L 419.04 12.96 
L 12.96 12.96 
z
" style="fill:#ffffff;"/>
   </g>
   <g id="line2d_1">
    <path clip-path="url(#pd3a6fb2102)" d="M 246.456 76.32 
L 265.781494 95.645494 
L 267.086169 97.113253 
L 280.132916 116.683373 
L 284.04694 124.42988 
L 293.179663 142.695325 
L 293.832 145.304675 
L 293.750458 171.642795 
L 287.227084 217.30641 
L 285.596241 219.426506 
L 267.983133 231.168578 
L 266.270747 232.473253 
L 253.224 245.52 
L 227.130506 252.043373 
L 224.113446 251.880289 
L 194.758265 246.009253 
L 191.822747 245.030747 
L 172.252627 225.460627 
L 169.561735 221.546602 
L 159.124337 205.890506 
L 158.145831 203.607325 
L 152.274795 180.123181 
L 151.785542 177.432289 
L 158.308916 144.815422 
L 159.450506 142.042988 
L 172.497253 116.19412 
L 185.544 96.624 
L 192.067373 77.05388 
L 193.372048 74.199904 
L 199.243084 62.294747 
L 205.766458 42.724627 
L 207.071133 41.256867 
L 212.289831 36.038169 
L 213.268337 35.712 
L 225.01041 35.712 
L 226.233542 35.875084 
L 232.756916 48.921831 
L 234.06159 52.672771 
L 239.280289 68.328867 
L 239.932627 69.796627 
L 246.456 76.32 
L 246.456 76.32 
" style="fill:none;stroke:#000000;stroke-linecap:square;stroke-width:8.0;"/>
   </g>
   <g id="patch_3">
    <path d="M 12.96 12.96 
L 419.04 12.96 
" style="fill:none;stroke:#000000;stroke-linecap:square;stroke-linejoin:miter;"/>
   </g>
   <g id="patch_4">
    <path d="M 419.04 275.04 
L 419.04 12.96 
" style="fill:none;stroke:#000000;stroke-linecap:square;stroke-linejoin:miter;"/>
   </g>
   <g id="patch_5">
    <path d="M 12.96 275.04 
L 419.04 275.04 
" style="fill:none;stroke:#000000;stroke-linecap:square;stroke-linejoin:miter;"/>
   </g>
   <g id="patch_6">
    <path d="M 12.96 275.04 
L 12.96 12.96 
" style="fill:none;stroke:#000000;stroke-linecap:square;stroke-linejoin:miter;"/>
   </g>
  </g>
 </g>
 <defs>
  <clipPath id="pd3a6fb2102">
   <rect height="262.08" width="406.08" x="12.96" y="12.96"/>
  </clipPath>
 </defs>
</svg>
