<?xml version="1.0" encoding="utf-8" standalone="no"?>
<!DOCTYPE svg PUBLIC "-//W3C//DTD SVG 1.1//EN"
  "http://www.w3.org/Graphics/SVG/1.1/DTD/svg11.dtd">
<!-- Created with matplotlib (http://matplotlib.org/) -->
<svg height="288pt" version="1.1" viewBox="0 0 432 288" width="432pt" xmlns="http://www.w3.org/2000/svg" xmlns:xlink="http://www.w3.org/1999/xlink">
 <defs>
  <style type="text/css">
*{stroke-linecap:butt;stroke-linejoin:round;stroke-miterlimit:100000;}
  </style>
 </defs>
 <g id="figure_1">
  <g id="patch_1">
   <path d="M 0 288 
L 432 288 
L 432 0 
L 0 0 
z
" style="fill:#ffffff;"/>
  </g>
  <g id="axes_1">
   <g id="patch_2">
    <path d="M 12.96 275.04 
L 419.04 275.04 
L 419.04 12.96 
L 12.96 12.96 
z
" style="fill:#ffffff;"/>
   </g>
   <g id="line2d_1">
    <path clip-path="url(#pd027c1ad37)" d="M 101.696 14.656 
L 107.40952 48.937117 
L 107.712 52.365229 
L 107.712 86.646346 
L 109.392447 95.250235 
L 113.963263 118.339575 
L 120.248134 155.54467 
L 125.390302 181.255508 
L 126.163307 184.112268 
L 137.590346 212.679866 
L 139.203575 215.066101 
L 154.630078 235.634771 
L 156.344134 237.584089 
L 173.484693 249.011128 
L 177.04724 250.85962 
L 185.046168 254.859084 
L 186.323307 255.296 
L 203.463866 255.296 
L 205.984536 254.489385 
L 231.695374 244.20505 
L 234.249654 242.96152 
L 245.676693 225.820961 
L 250.785251 219.569698 
L 273.63933 192.144804 
L 276.294436 188.783911 
L 287.721475 160.216313 
L 289.200268 157.359553 
L 306.307218 128.825564 
L 317.734257 105.971486 
L 318.876961 103.988559 
L 330.304 86.848 
L 330.304 86.848 
" style="fill:none;stroke:#0099ff;stroke-linecap:square;"/>
   </g>
   <g id="patch_3">
    <path d="M 12.96 12.96 
L 419.04 12.96 
" style="fill:none;stroke:#000000;stroke-linecap:square;stroke-linejoin:miter;"/>
   </g>
   <g id="patch_4">
    <path d="M 419.04 275.04 
L 419.04 12.96 
" style="fill:none;stroke:#000000;stroke-linecap:square;stroke-linejoin:miter;"/>
   </g>
   <g id="patch_5">
    <path d="M 12.96 275.04 
L 419.04 275.04 
" style="fill:none;stroke:#000000;stroke-linecap:square;stroke-linejoin:miter;"/>
   </g>
   <g id="patch_6">
    <path d="M 12.96 275.04 
L 12.96 12.96 
" style="fill:none;stroke:#000000;stroke-linecap:square;stroke-linejoin:miter;"/>
   </g>
  </g>
 </g>
 <defs>
  <clipPath id="pd027c1ad37">
   <rect height="262.08" width="406.08" x="12.96" y="12.96"/>
  </clipPath>
 </defs>
</svg>
