<?xml version="1.0" encoding="utf-8" standalone="no"?>
<!DOCTYPE svg PUBLIC "-//W3C//DTD SVG 1.1//EN"
  "http://www.w3.org/Graphics/SVG/1.1/DTD/svg11.dtd">
<!-- Created with matplotlib (http://matplotlib.org/) -->
<svg height="288pt" version="1.1" viewBox="0 0 432 288" width="432pt" xmlns="http://www.w3.org/2000/svg" xmlns:xlink="http://www.w3.org/1999/xlink">
 <defs>
  <style type="text/css">
*{stroke-linecap:butt;stroke-linejoin:round;stroke-miterlimit:100000;}
  </style>
 </defs>
 <g id="figure_1">
  <g id="patch_1">
   <path d="M 0 288 
L 432 288 
L 432 0 
L 0 0 
z
" style="fill:#ffffff;"/>
  </g>
  <g id="axes_1">
   <g id="patch_2">
    <path d="M 54 252 
L 388.8 252 
L 388.8 28.8 
L 54 28.8 
z
" style="fill:#ffffff;"/>
   </g>
   <g id="line2d_1">
    <path clip-path="url(#pc1aec3c7d8)" d="M 281.982857 180.257143 
L 281.982857 157.142963 
L 281.579841 154.831545 
L 276.032438 134.028784 
L 275.226405 131.954434 
L 262.898842 116.544981 
L 256.735061 112.662985 
L 250.57128 108.810621 
L 249.338524 108.514286 
L 238.243717 108.514286 
L 237.176909 107.891981 
L 231.013128 84.777801 
L 230.965714 77.843548 
L 230.965714 61.663622 
L 230.610112 60.241211 
L 218.282549 44.831758 
L 217.120913 45.424429 
L 206.026107 52.358683 
L 205.125247 53.129156 
L 198.961466 60.98205 
L 192.797685 76.391503 
L 192.702857 80.895805 
L 192.702857 115.181837 
L 192.418375 116.604249 
L 173.927031 124.308975 
L 172.575741 125.701753 
L 161.480935 139.57026 
L 160.532661 141.111206 
L 154.44 156.609559 
L 154.44 195.310993 
L 154.961551 197.177908 
L 167.336527 220.173553 
L 185.82787 227.878279 
L 188.127435 228.085714 
L 210.317047 228.085714 
L 213.256697 227.789379 
L 250.168263 220.084652 
L 268.659607 212.379926 
L 269.655295 211.609453 
L 275.202698 204.675199 
L 275.819076 203.371322 
L 281.982857 180.257143 
L 281.982857 180.257143 
" style="fill:none;stroke:#0000ff;stroke-linecap:square;"/>
   </g>
   <g id="patch_3">
    <path d="M 54 28.8 
L 388.8 28.8 
" style="fill:none;stroke:#000000;stroke-linecap:square;stroke-linejoin:miter;"/>
   </g>
   <g id="patch_4">
    <path d="M 388.8 252 
L 388.8 28.8 
" style="fill:none;stroke:#000000;stroke-linecap:square;stroke-linejoin:miter;"/>
   </g>
   <g id="patch_5">
    <path d="M 54 252 
L 388.8 252 
" style="fill:none;stroke:#000000;stroke-linecap:square;stroke-linejoin:miter;"/>
   </g>
   <g id="patch_6">
    <path d="M 54 252 
L 54 28.8 
" style="fill:none;stroke:#000000;stroke-linecap:square;stroke-linejoin:miter;"/>
   </g>
  </g>
 </g>
 <defs>
  <clipPath id="pc1aec3c7d8">
   <rect height="223.2" width="334.8" x="54.0" y="28.8"/>
  </clipPath>
 </defs>
</svg>
