<?xml version="1.0" encoding="utf-8" standalone="no"?>
<!DOCTYPE svg PUBLIC "-//W3C//DTD SVG 1.1//EN"
  "http://www.w3.org/Graphics/SVG/1.1/DTD/svg11.dtd">
<!-- Created with matplotlib (http://matplotlib.org/) -->
<svg height="288pt" version="1.1" viewBox="0 0 432 288" width="432pt" xmlns="http://www.w3.org/2000/svg" xmlns:xlink="http://www.w3.org/1999/xlink">
 <defs>
  <style type="text/css">
*{stroke-linecap:butt;stroke-linejoin:round;stroke-miterlimit:100000;}
  </style>
 </defs>
 <g id="figure_1">
  <g id="patch_1">
   <path d="M 0 288 
L 432 288 
L 432 0 
L 0 0 
z
" style="fill:#ffffff;"/>
  </g>
  <g id="axes_1">
   <g id="patch_2">
    <path d="M 54 252 
L 388.8 252 
L 388.8 28.8 
L 54 28.8 
z
" style="fill:#ffffff;"/>
   </g>
   <g id="line2d_1">
    <path clip-path="url(#pee3cc35136)" d="M 185.13 98.55 
L 169.110861 91.875359 
L 167.508947 90.840789 
L 153.091722 78.826435 
L 151.65 77.358014 
L 151.65 50.65945 
L 152.691244 48.423445 
L 167.108469 30.401914 
L 168.923971 28.933493 
L 222.3211 42.282775 
L 225.31134 43.150478 
L 262.68933 56.499761 
L 264.611627 58.402033 
L 296.649904 98.44988 
L 297.771244 107.660885 
L 302.043014 145.038876 
L 302.043014 148.709928 
L 296.676603 175.408493 
L 285.997177 202.107057 
L 284.608852 204.376435 
L 270.191627 222.397967 
L 268.349426 224.300239 
L 236.311148 237.649522 
L 228.08799 240.319378 
L 193.913828 250.998804 
L 189.77555 251.666268 
L 152.39756 238.316986 
L 150.795646 235.914115 
L 141.184163 211.885407 
L 140.86378 209.449163 
L 151.543206 189.425239 
L 153.572297 188.624282 
L 172.795263 182.617105 
L 175.171435 182.25 
L 201.87 182.25 
L 201.87 182.25 
" style="fill:none;stroke:#0000ff;stroke-linecap:square;"/>
   </g>
   <g id="patch_3">
    <path d="M 54 28.8 
L 388.8 28.8 
" style="fill:none;stroke:#000000;stroke-linecap:square;stroke-linejoin:miter;"/>
   </g>
   <g id="patch_4">
    <path d="M 388.8 252 
L 388.8 28.8 
" style="fill:none;stroke:#000000;stroke-linecap:square;stroke-linejoin:miter;"/>
   </g>
   <g id="patch_5">
    <path d="M 54 252 
L 388.8 252 
" style="fill:none;stroke:#000000;stroke-linecap:square;stroke-linejoin:miter;"/>
   </g>
   <g id="patch_6">
    <path d="M 54 252 
L 54 28.8 
" style="fill:none;stroke:#000000;stroke-linecap:square;stroke-linejoin:miter;"/>
   </g>
  </g>
 </g>
 <defs>
  <clipPath id="pee3cc35136">
   <rect height="223.2" width="334.8" x="54.0" y="28.8"/>
  </clipPath>
 </defs>
</svg>
