<?xml version="1.0" encoding="utf-8" standalone="no"?>
<!DOCTYPE svg PUBLIC "-//W3C//DTD SVG 1.1//EN"
  "http://www.w3.org/Graphics/SVG/1.1/DTD/svg11.dtd">
<!-- Created with matplotlib (http://matplotlib.org/) -->
<svg height="288pt" version="1.1" viewBox="0 0 432 288" width="432pt" xmlns="http://www.w3.org/2000/svg" xmlns:xlink="http://www.w3.org/1999/xlink">
 <defs>
  <style type="text/css">
*{stroke-linecap:butt;stroke-linejoin:round;stroke-miterlimit:100000;}
  </style>
 </defs>
 <g id="figure_1">
  <g id="patch_1">
   <path d="M 0 288 
L 432 288 
L 432 0 
L 0 0 
z
" style="fill:#ffffff;"/>
  </g>
  <g id="axes_1">
   <g id="patch_2">
    <path d="M 54 252 
L 388.8 252 
L 388.8 28.8 
L 54 28.8 
z
" style="fill:#ffffff;"/>
   </g>
   <g id="line2d_1">
    <path clip-path="url(#p7b4a6e40ca)" d="M 98.64 56.7 
L 105.787598 83.503493 
L 106.924716 86.183843 
L 119.790393 110.306987 
L 121.089956 112.987336 
L 128.237555 139.79083 
L 130.056943 142.471179 
L 149.355459 166.594323 
L 151.239825 169.274672 
L 165.535022 196.078166 
L 172.68262 205.053275 
L 179.830218 213.987773 
L 181.649607 214.312664 
L 200.948122 206.271616 
L 202.994934 205.256332 
L 217.290131 187.387336 
L 218.199825 184.950655 
L 225.347424 158.431441 
L 232.495022 140.562445 
L 233.859563 140.4 
L 246.72524 140.4 
L 247.79738 141.29345 
L 255.009956 159.162445 
L 269.305153 177.031441 
L 270.247336 179.427511 
L 276.680175 203.550655 
L 277.589869 205.987336 
L 291.885066 223.856332 
L 293.314585 224.1 
L 306.180262 224.1 
L 307.284891 223.287773 
L 314.432489 205.378166 
L 329.442445 148.887773 
L 336.590044 113.149782 
L 338.734323 104.946288 
L 344.452402 83.868996 
L 351.6 66 
L 351.6 66 
" style="fill:none;stroke:#0000ff;stroke-linecap:square;"/>
   </g>
   <g id="patch_3">
    <path d="M 54 28.8 
L 388.8 28.8 
" style="fill:none;stroke:#000000;stroke-linecap:square;stroke-linejoin:miter;"/>
   </g>
   <g id="patch_4">
    <path d="M 388.8 252 
L 388.8 28.8 
" style="fill:none;stroke:#000000;stroke-linecap:square;stroke-linejoin:miter;"/>
   </g>
   <g id="patch_5">
    <path d="M 54 252 
L 388.8 252 
" style="fill:none;stroke:#000000;stroke-linecap:square;stroke-linejoin:miter;"/>
   </g>
   <g id="patch_6">
    <path d="M 54 252 
L 54 28.8 
" style="fill:none;stroke:#000000;stroke-linecap:square;stroke-linejoin:miter;"/>
   </g>
  </g>
 </g>
 <defs>
  <clipPath id="p7b4a6e40ca">
   <rect height="223.2" width="334.8" x="54.0" y="28.8"/>
  </clipPath>
 </defs>
</svg>
