<?xml version="1.0" encoding="utf-8" standalone="no"?>
<!DOCTYPE svg PUBLIC "-//W3C//DTD SVG 1.1//EN"
  "http://www.w3.org/Graphics/SVG/1.1/DTD/svg11.dtd">
<!-- Created with matplotlib (http://matplotlib.org/) -->
<svg height="288pt" version="1.1" viewBox="0 0 432 288" width="432pt" xmlns="http://www.w3.org/2000/svg" xmlns:xlink="http://www.w3.org/1999/xlink">
 <defs>
  <style type="text/css">
*{stroke-linecap:butt;stroke-linejoin:round;stroke-miterlimit:100000;}
  </style>
 </defs>
 <g id="figure_1">
  <g id="patch_1">
   <path d="M 0 288 
L 432 288 
L 432 0 
L 0 0 
z
" style="fill:#ffffff;"/>
  </g>
  <g id="axes_1">
   <g id="patch_2">
    <path d="M 54 252 
L 388.8 252 
L 388.8 28.8 
L 54 28.8 
z
" style="fill:#ffffff;"/>
   </g>
   <g id="line2d_1">
    <path clip-path="url(#p96fad17e3f)" d="M 262.32 52.05 
L 226.412664 61.026834 
L 224.717838 61.601351 
L 194.756757 80.452703 
L 183.984556 89.519305 
L 173.212355 102.984556 
L 173.04 103.954054 
L 173.04 112.033205 
L 173.38471 112.930888 
L 180.566178 121.853861 
L 187.747645 126.342278 
L 190.447876 127.239961 
L 201.938224 130.830695 
L 203.230888 131.459073 
L 213.96 140.435907 
L 213.96 149.412741 
L 213.71583 150.005212 
L 210.010193 154.493629 
L 202.828726 158.982046 
L 180.393822 168.515444 
L 176.803089 177.492278 
L 177.435058 179.287645 
L 180.307645 186.469112 
L 180.853436 187.133398 
L 188.092355 191.621815 
L 221.486178 205.571815 
L 232.258378 214.548649 
L 235.030425 216.344015 
L 246.520772 223.525483 
L 247.698533 224.423166 
L 254.88 233.4 
L 254.88 233.4 
" style="fill:none;stroke:#0000ff;stroke-linecap:square;"/>
   </g>
   <g id="patch_3">
    <path d="M 54 28.8 
L 388.8 28.8 
" style="fill:none;stroke:#000000;stroke-linecap:square;stroke-linejoin:miter;"/>
   </g>
   <g id="patch_4">
    <path d="M 388.8 252 
L 388.8 28.8 
" style="fill:none;stroke:#000000;stroke-linecap:square;stroke-linejoin:miter;"/>
   </g>
   <g id="patch_5">
    <path d="M 54 252 
L 388.8 252 
" style="fill:none;stroke:#000000;stroke-linecap:square;stroke-linejoin:miter;"/>
   </g>
   <g id="patch_6">
    <path d="M 54 252 
L 54 28.8 
" style="fill:none;stroke:#000000;stroke-linecap:square;stroke-linejoin:miter;"/>
   </g>
  </g>
 </g>
 <defs>
  <clipPath id="p96fad17e3f">
   <rect height="223.2" width="334.8" x="54.0" y="28.8"/>
  </clipPath>
 </defs>
</svg>
