<?xml version="1.0" encoding="utf-8" standalone="no"?>
<!DOCTYPE svg PUBLIC "-//W3C//DTD SVG 1.1//EN"
  "http://www.w3.org/Graphics/SVG/1.1/DTD/svg11.dtd">
<!-- Created with matplotlib (http://matplotlib.org/) -->
<svg height="288pt" version="1.1" viewBox="0 0 432 288" width="432pt" xmlns="http://www.w3.org/2000/svg" xmlns:xlink="http://www.w3.org/1999/xlink">
 <defs>
  <style type="text/css">
*{stroke-linecap:butt;stroke-linejoin:round;stroke-miterlimit:100000;}
  </style>
 </defs>
 <g id="figure_1">
  <g id="patch_1">
   <path d="M 0 288 
L 432 288 
L 432 0 
L 0 0 
z
" style="fill:#ffffff;"/>
  </g>
  <g id="axes_1">
   <g id="patch_2">
    <path d="M 12.96 275.04 
L 419.04 275.04 
L 419.04 12.96 
L 12.96 12.96 
z
" style="fill:#ffffff;"/>
   </g>
   <g id="line2d_1">
    <path clip-path="url(#pe3d29f81fb)" d="M 290.448 35.712 
L 286.14006 61.559638 
L 285.482533 63.464201 
L 276.84398 76.410693 
L 263.920161 93.642452 
L 262.378372 94.866814 
L 245.19196 103.482693 
L 232.268141 112.098573 
L 230.703678 112.416 
L 215.195095 112.416 
L 213.60796 112.27996 
L 192.204302 90.876302 
L 190.91192 89.856 
L 177.988101 89.856 
L 176.695719 90.490854 
L 165.064281 98.245146 
L 163.885266 99.220101 
L 155.269387 112.14392 
L 154.747899 114.116503 
L 150.870754 133.502231 
L 150.71204 135.656201 
L 155.01998 157.195899 
L 156.675136 160.710271 
L 164.429427 176.060141 
L 173.045307 188.98396 
L 176.400965 191.568724 
L 190.186372 201.907779 
L 191.546774 203.381548 
L 208.778533 237.845065 
L 209.232 239.568241 
L 209.232 256.8 
L 209.232 256.8 
" style="fill:none;stroke:#000000;stroke-linecap:square;stroke-width:8.0;"/>
   </g>
   <g id="patch_3">
    <path d="M 12.96 12.96 
L 419.04 12.96 
" style="fill:none;stroke:#000000;stroke-linecap:square;stroke-linejoin:miter;"/>
   </g>
   <g id="patch_4">
    <path d="M 419.04 275.04 
L 419.04 12.96 
" style="fill:none;stroke:#000000;stroke-linecap:square;stroke-linejoin:miter;"/>
   </g>
   <g id="patch_5">
    <path d="M 12.96 275.04 
L 419.04 275.04 
" style="fill:none;stroke:#000000;stroke-linecap:square;stroke-linejoin:miter;"/>
   </g>
   <g id="patch_6">
    <path d="M 12.96 275.04 
L 12.96 12.96 
" style="fill:none;stroke:#000000;stroke-linecap:square;stroke-linejoin:miter;"/>
   </g>
  </g>
 </g>
 <defs>
  <clipPath id="pe3d29f81fb">
   <rect height="262.08" width="406.08" x="12.96" y="12.96"/>
  </clipPath>
 </defs>
</svg>
