<?xml version="1.0" encoding="utf-8" standalone="no"?>
<!DOCTYPE svg PUBLIC "-//W3C//DTD SVG 1.1//EN"
  "http://www.w3.org/Graphics/SVG/1.1/DTD/svg11.dtd">
<!-- Created with matplotlib (http://matplotlib.org/) -->
<svg height="288pt" version="1.1" viewBox="0 0 432 288" width="432pt" xmlns="http://www.w3.org/2000/svg" xmlns:xlink="http://www.w3.org/1999/xlink">
 <defs>
  <style type="text/css">
*{stroke-linecap:butt;stroke-linejoin:round;stroke-miterlimit:100000;}
  </style>
 </defs>
 <g id="figure_1">
  <g id="patch_1">
   <path d="M 0 288 
L 432 288 
L 432 0 
L 0 0 
z
" style="fill:#ffffff;"/>
  </g>
  <g id="axes_1">
   <g id="patch_2">
    <path d="M 12.96 275.04 
L 419.04 275.04 
L 419.04 12.96 
L 12.96 12.96 
z
" style="fill:#ffffff;"/>
   </g>
   <g id="line2d_1">
    <path clip-path="url(#paa49e283f2)" d="M 320.832 152.736 
L 312.399568 186.46573 
L 310.713081 191.828757 
L 303.967135 212.066595 
L 302.887784 214.596324 
L 286.022919 239.893622 
L 283.560649 240.871784 
L 260.793081 248.460973 
L 257.791135 249.776432 
L 227.434378 264.954811 
L 223.892757 266.304 
L 181.730595 266.304 
L 178.222703 265.595676 
L 147.865946 258.006486 
L 145.302486 256.758486 
L 130.124108 241.580108 
L 128.437622 239.691243 
L 111.572757 205.961514 
L 110.527135 201.947676 
L 102.937946 164.00173 
L 102.432 160.122811 
L 102.46573 126.359351 
L 110.898162 84.197189 
L 112.314811 81.127784 
L 127.493189 58.360216 
L 129.179676 56.100324 
L 146.044541 39.235459 
L 161.189189 29.116541 
L 171.308108 22.370595 
L 173.837838 21.190054 
L 196.605405 13.600865 
L 199.135135 12.96 
L 224.432432 12.96 
L 229.491892 14.545297 
L 249.72973 21.291243 
L 251.820973 22.572973 
L 302.415568 73.167568 
L 303.731027 75.596108 
L 312.163459 109.190919 
L 320.595892 126.055784 
L 320.832 127.74227 
L 320.832 152.736 
L 320.832 152.736 
" style="fill:none;stroke:#0099ff;stroke-linecap:square;"/>
   </g>
   <g id="patch_3">
    <path d="M 12.96 12.96 
L 419.04 12.96 
" style="fill:none;stroke:#000000;stroke-linecap:square;stroke-linejoin:miter;"/>
   </g>
   <g id="patch_4">
    <path d="M 419.04 275.04 
L 419.04 12.96 
" style="fill:none;stroke:#000000;stroke-linecap:square;stroke-linejoin:miter;"/>
   </g>
   <g id="patch_5">
    <path d="M 12.96 275.04 
L 419.04 275.04 
" style="fill:none;stroke:#000000;stroke-linecap:square;stroke-linejoin:miter;"/>
   </g>
   <g id="patch_6">
    <path d="M 12.96 275.04 
L 12.96 12.96 
" style="fill:none;stroke:#000000;stroke-linecap:square;stroke-linejoin:miter;"/>
   </g>
  </g>
 </g>
 <defs>
  <clipPath id="paa49e283f2">
   <rect height="262.08" width="406.08" x="12.96" y="12.96"/>
  </clipPath>
 </defs>
</svg>
