<?xml version="1.0" encoding="utf-8" standalone="no"?>
<!DOCTYPE svg PUBLIC "-//W3C//DTD SVG 1.1//EN"
  "http://www.w3.org/Graphics/SVG/1.1/DTD/svg11.dtd">
<!-- Created with matplotlib (http://matplotlib.org/) -->
<svg height="288pt" version="1.1" viewBox="0 0 432 288" width="432pt" xmlns="http://www.w3.org/2000/svg" xmlns:xlink="http://www.w3.org/1999/xlink">
 <defs>
  <style type="text/css">
*{stroke-linecap:butt;stroke-linejoin:round;stroke-miterlimit:100000;}
  </style>
 </defs>
 <g id="figure_1">
  <g id="patch_1">
   <path d="M 0 288 
L 432 288 
L 432 0 
L 0 0 
z
" style="fill:#ffffff;"/>
  </g>
  <g id="axes_1">
   <g id="patch_2">
    <path d="M 54 252 
L 388.8 252 
L 388.8 28.8 
L 54 28.8 
z
" style="fill:#ffffff;"/>
   </g>
   <g id="line2d_1">
    <path clip-path="url(#pd40dd69c84)" d="M 254.88 47.4 
L 261.983518 56.279397 
L 262.693869 57.634673 
L 269.834774 75.440201 
L 284.041809 102.078392 
L 285.462513 104.228141 
L 299.669548 122.080402 
L 313.876583 148.718593 
L 314.4 151.943216 
L 314.4 183.909045 
L 314.287839 187.460804 
L 307.184322 222.978392 
L 304.529849 225.315075 
L 272.56402 241.29799 
L 268.713166 242.886935 
L 218.988543 251.766332 
L 214.01608 251.345729 
L 169.26392 243.354271 
L 165.413065 241.531658 
L 158.309548 197.134673 
L 158.16 193.39598 
L 158.16 161.430151 
L 158.608643 157.878392 
L 172.815678 122.360804 
L 174.236382 120.304523 
L 187.022714 104.321608 
L 188.181709 102.545729 
L 195.285226 84.786935 
L 198.836985 71.561307 
L 202.388744 58.242211 
L 203.398191 55.952261 
L 217.605226 38.193467 
L 221.82995 38.1 
L 238.878392 38.1 
L 240.672965 38.520603 
L 254.88 47.4 
L 254.88 47.4 
" style="fill:none;stroke:#0000ff;stroke-linecap:square;"/>
   </g>
   <g id="patch_3">
    <path d="M 54 28.8 
L 388.8 28.8 
" style="fill:none;stroke:#000000;stroke-linecap:square;stroke-linejoin:miter;"/>
   </g>
   <g id="patch_4">
    <path d="M 388.8 252 
L 388.8 28.8 
" style="fill:none;stroke:#000000;stroke-linecap:square;stroke-linejoin:miter;"/>
   </g>
   <g id="patch_5">
    <path d="M 54 252 
L 388.8 252 
" style="fill:none;stroke:#000000;stroke-linecap:square;stroke-linejoin:miter;"/>
   </g>
   <g id="patch_6">
    <path d="M 54 252 
L 54 28.8 
" style="fill:none;stroke:#000000;stroke-linecap:square;stroke-linejoin:miter;"/>
   </g>
  </g>
 </g>
 <defs>
  <clipPath id="pd40dd69c84">
   <rect height="223.2" width="334.8" x="54.0" y="28.8"/>
  </clipPath>
 </defs>
</svg>
