<?xml version="1.0" encoding="utf-8" standalone="no"?>
<!DOCTYPE svg PUBLIC "-//W3C//DTD SVG 1.1//EN"
  "http://www.w3.org/Graphics/SVG/1.1/DTD/svg11.dtd">
<!-- Created with matplotlib (http://matplotlib.org/) -->
<svg height="288pt" version="1.1" viewBox="0 0 432 288" width="432pt" xmlns="http://www.w3.org/2000/svg" xmlns:xlink="http://www.w3.org/1999/xlink">
 <defs>
  <style type="text/css">
*{stroke-linecap:butt;stroke-linejoin:round;stroke-miterlimit:100000;}
  </style>
 </defs>
 <g id="figure_1">
  <g id="patch_1">
   <path d="M 0 288 
L 432 288 
L 432 0 
L 0 0 
z
" style="fill:#ffffff;"/>
  </g>
  <g id="axes_1">
   <g id="patch_2">
    <path d="M 12.96 275.04 
L 419.04 275.04 
L 419.04 12.96 
L 12.96 12.96 
z
" style="fill:#ffffff;"/>
   </g>
   <g id="line2d_1">
    <path clip-path="url(#pbed75c4f50)" d="M 281.52 65.376 
L 264.655135 48.511135 
L 262.428973 46.824649 
L 239.661405 31.64627 
L 237.131676 30.432 
L 211.834378 30.432 
L 209.304649 31.983568 
L 186.537081 47.161946 
L 184.479568 48.848432 
L 169.301189 64.026811 
L 167.614703 65.881946 
L 150.749838 91.179243 
L 149.771676 93.708973 
L 142.182486 116.476541 
L 141.339243 118.601514 
L 132.805622 135.466378 
L 115.940757 152.331243 
L 114.895135 154.01773 
L 107.305946 169.196108 
L 106.8 170.882595 
L 106.83373 187.747459 
L 115.266162 204.612324 
L 117.256216 205.725405 
L 142.283676 214.157838 
L 159.148541 222.59027 
L 167.580973 230.988973 
L 200.973405 264.381405 
L 203.503135 266.506378 
L 228.800432 274.938811 
L 233.859892 275.04 
L 254.09773 275.04 
L 257.065946 274.163027 
L 287.422703 258.984649 
L 290.525838 257.028324 
L 307.390703 223.298595 
L 309.245838 218.070486 
L 315.991784 197.832649 
L 316.835027 194.560865 
L 325.2 152.533622 
L 325.2 127.236324 
L 323.98573 124.099459 
L 308.807351 93.742703 
L 306.817297 90.673297 
L 281.52 65.376 
L 281.52 65.376 
" style="fill:none;stroke:#0099ff;stroke-linecap:square;"/>
   </g>
   <g id="patch_3">
    <path d="M 12.96 12.96 
L 419.04 12.96 
" style="fill:none;stroke:#000000;stroke-linecap:square;stroke-linejoin:miter;"/>
   </g>
   <g id="patch_4">
    <path d="M 419.04 275.04 
L 419.04 12.96 
" style="fill:none;stroke:#000000;stroke-linecap:square;stroke-linejoin:miter;"/>
   </g>
   <g id="patch_5">
    <path d="M 12.96 275.04 
L 419.04 275.04 
" style="fill:none;stroke:#000000;stroke-linecap:square;stroke-linejoin:miter;"/>
   </g>
   <g id="patch_6">
    <path d="M 12.96 275.04 
L 12.96 12.96 
" style="fill:none;stroke:#000000;stroke-linecap:square;stroke-linejoin:miter;"/>
   </g>
  </g>
 </g>
 <defs>
  <clipPath id="pbed75c4f50">
   <rect height="262.08" width="406.08" x="12.96" y="12.96"/>
  </clipPath>
 </defs>
</svg>
