<?xml version="1.0" encoding="utf-8" standalone="no"?>
<!DOCTYPE svg PUBLIC "-//W3C//DTD SVG 1.1//EN"
  "http://www.w3.org/Graphics/SVG/1.1/DTD/svg11.dtd">
<!-- Created with matplotlib (http://matplotlib.org/) -->
<svg height="288pt" version="1.1" viewBox="0 0 432 288" width="432pt" xmlns="http://www.w3.org/2000/svg" xmlns:xlink="http://www.w3.org/1999/xlink">
 <defs>
  <style type="text/css">
*{stroke-linecap:butt;stroke-linejoin:round;stroke-miterlimit:100000;}
  </style>
 </defs>
 <g id="figure_1">
  <g id="patch_1">
   <path d="M 0 288 
L 432 288 
L 432 0 
L 0 0 
z
" style="fill:#ffffff;"/>
  </g>
  <g id="axes_1">
   <g id="patch_2">
    <path d="M 54 252 
L 388.8 252 
L 388.8 28.8 
L 54 28.8 
z
" style="fill:#ffffff;"/>
   </g>
   <g id="line2d_1">
    <path clip-path="url(#p6ed38e154e)" d="M 269.76 52.05 
L 269.76 65.451747 
L 269.548821 67.055895 
L 262.401223 102.793886 
L 261.767686 104.23559 
L 254.620087 117.474891 
L 247.472489 126.409389 
L 242.128035 128.663319 
L 236.767336 130.896943 
L 235.695197 130.856332 
L 225.022533 126.328166 
L 217.874934 117.393668 
L 216.445415 114.835153 
L 210.012576 102.915721 
L 202.864978 93.981223 
L 200.070917 94.752838 
L 188.63476 98.326638 
L 187.38393 98.996725 
L 176.695022 107.971834 
L 169.547424 121.373581 
L 169.32 123.018341 
L 169.32 139.100437 
L 169.514934 140.765502 
L 183.810131 167.568996 
L 184.687336 168.90917 
L 202.540087 191.225109 
L 204.55441 193.012009 
L 214.366114 201.053057 
L 232.235109 209.987555 
L 233.144803 211.246507 
L 240.146201 224.465502 
L 243.72 233.4 
L 243.72 233.4 
" style="fill:none;stroke:#0000ff;stroke-linecap:square;"/>
   </g>
   <g id="patch_3">
    <path d="M 54 28.8 
L 388.8 28.8 
" style="fill:none;stroke:#000000;stroke-linecap:square;stroke-linejoin:miter;"/>
   </g>
   <g id="patch_4">
    <path d="M 388.8 252 
L 388.8 28.8 
" style="fill:none;stroke:#000000;stroke-linecap:square;stroke-linejoin:miter;"/>
   </g>
   <g id="patch_5">
    <path d="M 54 252 
L 388.8 252 
" style="fill:none;stroke:#000000;stroke-linecap:square;stroke-linejoin:miter;"/>
   </g>
   <g id="patch_6">
    <path d="M 54 252 
L 54 28.8 
" style="fill:none;stroke:#000000;stroke-linecap:square;stroke-linejoin:miter;"/>
   </g>
  </g>
 </g>
 <defs>
  <clipPath id="p6ed38e154e">
   <rect height="223.2" width="334.8" x="54.0" y="28.8"/>
  </clipPath>
 </defs>
</svg>
