<?xml version="1.0" encoding="utf-8" standalone="no"?>
<!DOCTYPE svg PUBLIC "-//W3C//DTD SVG 1.1//EN"
  "http://www.w3.org/Graphics/SVG/1.1/DTD/svg11.dtd">
<!-- Created with matplotlib (http://matplotlib.org/) -->
<svg height="288pt" version="1.1" viewBox="0 0 432 288" width="432pt" xmlns="http://www.w3.org/2000/svg" xmlns:xlink="http://www.w3.org/1999/xlink">
 <defs>
  <style type="text/css">
*{stroke-linecap:butt;stroke-linejoin:round;stroke-miterlimit:100000;}
  </style>
 </defs>
 <g id="figure_1">
  <g id="patch_1">
   <path d="M 0 288 
L 432 288 
L 432 0 
L 0 0 
z
" style="fill:#ffffff;"/>
  </g>
  <g id="axes_1">
   <g id="patch_2">
    <path d="M 12.96 275.04 
L 419.04 275.04 
L 419.04 12.96 
L 12.96 12.96 
z
" style="fill:#ffffff;"/>
   </g>
   <g id="line2d_1">
    <path clip-path="url(#p8aaec71052)" d="M 265.632 35.712 
L 248.127251 44.464375 
L 245.365726 46.214849 
L 233.384027 54.091987 
L 215.849097 62.814181 
L 193.968161 67.190368 
L 188.822368 68.835211 
L 167.816669 75.83711 
L 165.779478 76.712348 
L 152.771639 85.464722 
L 148.395452 94.217097 
L 148.32 95.967572 
L 148.32 102.969472 
L 148.546355 103.618355 
L 152.484923 107.556923 
L 153.103625 107.994542 
L 179.360749 116.746916 
L 180.160535 117.184535 
L 184.657445 121.802167 
L 193.409819 134.930729 
L 193.44 141.917538 
L 193.44 152.420388 
L 193.153284 153.597431 
L 188.777097 162.198903 
L 184.385819 166.57509 
L 175.633445 170.951278 
L 173.88297 172.58103 
L 166.88107 179.58293 
L 166.186916 180.458167 
L 161.856 189.210542 
L 161.856 197.962916 
L 162.550154 198.491077 
L 188.807278 211.619639 
L 197.93691 217.68594 
L 202.94689 220.945445 
L 210.824027 224.884013 
L 211.804896 225.532896 
L 224.933458 238.661458 
L 227.589351 240.034676 
L 233.716013 243.098007 
L 234.591251 243.807251 
L 247.584 256.8 
L 247.584 256.8 
" style="fill:none;stroke:#0099ff;stroke-linecap:square;"/>
   </g>
   <g id="patch_3">
    <path d="M 12.96 12.96 
L 419.04 12.96 
" style="fill:none;stroke:#000000;stroke-linecap:square;stroke-linejoin:miter;"/>
   </g>
   <g id="patch_4">
    <path d="M 419.04 275.04 
L 419.04 12.96 
" style="fill:none;stroke:#000000;stroke-linecap:square;stroke-linejoin:miter;"/>
   </g>
   <g id="patch_5">
    <path d="M 12.96 275.04 
L 419.04 275.04 
" style="fill:none;stroke:#000000;stroke-linecap:square;stroke-linejoin:miter;"/>
   </g>
   <g id="patch_6">
    <path d="M 12.96 275.04 
L 12.96 12.96 
" style="fill:none;stroke:#000000;stroke-linecap:square;stroke-linejoin:miter;"/>
   </g>
  </g>
 </g>
 <defs>
  <clipPath id="p8aaec71052">
   <rect height="262.08" width="406.08" x="12.96" y="12.96"/>
  </clipPath>
 </defs>
</svg>
