<?xml version="1.0" encoding="utf-8" standalone="no"?>
<!DOCTYPE svg PUBLIC "-//W3C//DTD SVG 1.1//EN"
  "http://www.w3.org/Graphics/SVG/1.1/DTD/svg11.dtd">
<!-- Created with matplotlib (http://matplotlib.org/) -->
<svg height="288pt" version="1.1" viewBox="0 0 432 288" width="432pt" xmlns="http://www.w3.org/2000/svg" xmlns:xlink="http://www.w3.org/1999/xlink">
 <defs>
  <style type="text/css">
*{stroke-linecap:butt;stroke-linejoin:round;stroke-miterlimit:100000;}
  </style>
 </defs>
 <g id="figure_1">
  <g id="patch_1">
   <path d="M 0 288 
L 432 288 
L 432 0 
L 0 0 
z
" style="fill:#ffffff;"/>
  </g>
  <g id="axes_1">
   <g id="patch_2">
    <path d="M 12.96 275.04 
L 419.04 275.04 
L 419.04 12.96 
L 12.96 12.96 
z
" style="fill:#ffffff;"/>
   </g>
   <g id="line2d_1">
    <path clip-path="url(#p07c1c089d0)" d="M 173.136 35.712 
L 173.96389 37.781725 
L 174.79178 39.85145 
L 175.61967 41.921174 
L 176.44756 43.990899 
L 177.27545 46.060624 
L 178.103339 48.130349 
L 178.931229 50.200073 
L 179.759119 52.269798 
L 180.587009 54.339523 
L 181.414899 56.409248 
L 182.242789 58.478972 
L 183.070679 60.548697 
L 183.898569 62.618422 
L 184.726459 64.688147 
L 185.554349 66.757872 
L 186.382239 68.827596 
L 187.210128 70.897321 
L 188.038018 72.967046 
L 188.865908 75.036771 
L 189.693798 77.106495 
L 190.521688 79.17622 
L 191.349578 81.328734 
L 192.177468 83.812404 
L 193.005358 86.296073 
L 193.833248 88.779743 
L 194.661138 91.263413 
L 195.489028 93.747083 
L 196.316917 96.230752 
L 197.144807 98.714422 
L 197.972697 101.198092 
L 198.800587 103.681761 
L 199.628477 106.165431 
L 200.456367 108.524917 
L 201.284257 110.594642 
L 202.112147 112.664367 
L 202.940037 114.734092 
L 203.767927 116.803817 
L 204.595817 118.873541 
L 205.423706 120.943266 
L 206.251596 123.012991 
L 207.079486 125.082716 
L 207.907376 127.15244 
L 208.735266 129.222165 
L 209.563156 131.457468 
L 210.391046 133.941138 
L 211.218936 136.424807 
L 212.046826 138.908477 
L 212.874716 141.392147 
L 213.702606 143.875817 
L 214.530495 146.359486 
L 215.358385 148.843156 
L 216.186275 151.326826 
L 217.014165 153.810495 
L 217.842055 156.294165 
L 218.876917 158.777835 
L 220.118752 161.261505 
L 221.360587 163.745174 
L 222.602422 166.228844 
L 223.844257 168.712514 
L 225.086092 171.196183 
L 226.327927 173.679853 
L 227.569761 176.163523 
L 228.811596 178.647193 
L 230.053431 181.130862 
L 231.295266 183.614532 
L 232.537101 185.849835 
L 233.778936 187.91956 
L 235.020771 189.989284 
L 236.262606 192.059009 
L 237.50444 194.128734 
L 238.746275 196.198459 
L 239.98811 198.268183 
L 241.229945 200.337908 
L 242.47178 202.407633 
L 243.713615 204.477358 
L 244.95545 206.547083 
L 246.197284 208.906569 
L 247.439119 211.390239 
L 248.680954 213.873908 
L 249.922789 216.357578 
L 251.164624 218.841248 
L 252.406459 221.324917 
L 253.648294 223.808587 
L 254.890128 226.292257 
L 256.131963 228.775927 
L 257.373798 231.259596 
L 258.615633 233.743266 
L 259.526312 235.233468 
L 260.354202 236.475303 
L 261.182092 237.717138 
L 262.009982 238.958972 
L 262.837872 240.200807 
L 263.665761 241.442642 
L 264.493651 242.684477 
L 265.321541 243.926312 
L 266.149431 245.168147 
L 266.977321 246.409982 
L 267.805211 247.651817 
L 268.26055 248.521101 
L 268.674495 249.348991 
L 269.08844 250.176881 
L 269.502385 251.004771 
L 269.91633 251.832661 
L 270.330275 252.66055 
L 270.74422 253.48844 
L 271.158165 254.31633 
L 271.57211 255.14422 
L 271.986055 255.97211 
L 272.4 256.8 
" style="fill:none;stroke:#0099ff;stroke-linecap:square;"/>
   </g>
   <g id="patch_3">
    <path d="M 12.96 12.96 
L 419.04 12.96 
" style="fill:none;stroke:#000000;stroke-linecap:square;stroke-linejoin:miter;"/>
   </g>
   <g id="patch_4">
    <path d="M 419.04 275.04 
L 419.04 12.96 
" style="fill:none;stroke:#000000;stroke-linecap:square;stroke-linejoin:miter;"/>
   </g>
   <g id="patch_5">
    <path d="M 12.96 275.04 
L 419.04 275.04 
" style="fill:none;stroke:#000000;stroke-linecap:square;stroke-linejoin:miter;"/>
   </g>
   <g id="patch_6">
    <path d="M 12.96 275.04 
L 12.96 12.96 
" style="fill:none;stroke:#000000;stroke-linecap:square;stroke-linejoin:miter;"/>
   </g>
  </g>
 </g>
 <defs>
  <clipPath id="p07c1c089d0">
   <rect height="262.08" width="406.08" x="12.96" y="12.96"/>
  </clipPath>
 </defs>
</svg>
