<?xml version="1.0" encoding="utf-8" standalone="no"?>
<!DOCTYPE svg PUBLIC "-//W3C//DTD SVG 1.1//EN"
  "http://www.w3.org/Graphics/SVG/1.1/DTD/svg11.dtd">
<!-- Created with matplotlib (http://matplotlib.org/) -->
<svg height="288pt" version="1.1" viewBox="0 0 432 288" width="432pt" xmlns="http://www.w3.org/2000/svg" xmlns:xlink="http://www.w3.org/1999/xlink">
 <defs>
  <style type="text/css">
*{stroke-linecap:butt;stroke-linejoin:round;stroke-miterlimit:100000;}
  </style>
 </defs>
 <g id="figure_1">
  <g id="patch_1">
   <path d="M 0 288 
L 432 288 
L 432 0 
L 0 0 
z
" style="fill:#ffffff;"/>
  </g>
  <g id="axes_1">
   <g id="patch_2">
    <path d="M 54 252 
L 388.8 252 
L 388.8 28.8 
L 54 28.8 
z
" style="fill:#ffffff;"/>
   </g>
   <g id="line2d_1">
    <path clip-path="url(#pa70bf4b796)" d="M 275.34 52.05 
L 274.316147 53.756422 
L 273.292294 55.462844 
L 272.26844 57.169266 
L 271.244587 58.875688 
L 270.220734 60.58211 
L 269.196881 62.288532 
L 268.173028 63.994954 
L 267.149174 65.701376 
L 266.125321 67.407798 
L 265.101468 69.11422 
L 264.043486 70.777982 
L 262.678349 72.057798 
L 261.313211 73.337615 
L 259.948073 74.617431 
L 258.582936 75.897248 
L 257.217798 77.177064 
L 255.852661 78.456881 
L 254.487523 79.736697 
L 253.122385 81.016514 
L 251.757248 82.29633 
L 250.39211 83.576147 
L 249.026972 85.026606 
L 247.661835 87.159633 
L 246.296697 89.292661 
L 244.93156 91.425688 
L 243.566422 93.558716 
L 242.201284 95.691743 
L 240.836147 97.824771 
L 239.471009 99.957798 
L 238.105872 102.090826 
L 236.740734 104.223853 
L 235.375596 106.356881 
L 234.010459 108.489908 
L 232.645321 110.622936 
L 231.280183 112.755963 
L 229.915046 114.888991 
L 228.549908 117.022018 
L 227.184771 119.155046 
L 225.819633 121.288073 
L 224.454495 123.421101 
L 223.089358 125.554128 
L 221.72422 127.687156 
L 220.359083 129.820183 
L 218.993945 131.782569 
L 217.628807 133.488991 
L 216.26367 135.195413 
L 214.898532 136.901835 
L 213.533394 138.608257 
L 212.168257 140.314679 
L 210.803119 142.021101 
L 209.437982 143.727523 
L 208.072844 145.433945 
L 206.707706 147.140367 
L 205.342569 148.846789 
L 203.977431 150.766514 
L 202.612294 152.899541 
L 201.247156 155.032569 
L 199.882018 157.165596 
L 198.516881 159.298624 
L 197.151743 161.431651 
L 195.786606 163.564679 
L 194.421468 165.697706 
L 193.05633 167.830734 
L 191.691193 169.963761 
L 190.326055 172.096789 
L 189.165688 173.973853 
L 188.141835 175.680275 
L 187.117982 177.386697 
L 186.094128 179.093119 
L 185.070275 180.799541 
L 184.046422 182.505963 
L 183.022569 184.212385 
L 181.998716 185.918807 
L 180.974862 187.625229 
L 179.951009 189.331651 
L 178.927156 191.038073 
L 178.142202 192.445872 
L 177.459633 193.725688 
L 176.777064 195.005505 
L 176.094495 196.285321 
L 175.411927 197.565138 
L 174.729358 198.844954 
L 174.046789 200.124771 
L 173.36422 201.404587 
L 172.681651 202.684404 
L 171.999083 203.96422 
L 171.316514 205.244037 
L 170.633945 206.523853 
L 169.951376 207.80367 
L 169.268807 209.083486 
L 168.586239 210.363303 
L 167.90367 211.643119 
L 167.221101 212.922936 
L 166.538532 214.202752 
L 165.855963 215.482569 
L 165.173394 216.762385 
L 164.490826 218.042202 
L 163.808257 219.322018 
L 163.125688 220.601835 
L 162.443119 221.881651 
L 161.76055 223.161468 
L 161.077982 224.441284 
L 160.395413 225.721101 
L 159.712844 227.000917 
L 159.030275 228.280734 
L 158.347706 229.56055 
L 157.665138 230.840367 
L 156.982569 232.120183 
L 156.3 233.4 
" style="fill:none;stroke:#0000ff;stroke-linecap:square;"/>
   </g>
   <g id="patch_3">
    <path d="M 54 28.8 
L 388.8 28.8 
" style="fill:none;stroke:#000000;stroke-linecap:square;stroke-linejoin:miter;"/>
   </g>
   <g id="patch_4">
    <path d="M 388.8 252 
L 388.8 28.8 
" style="fill:none;stroke:#000000;stroke-linecap:square;stroke-linejoin:miter;"/>
   </g>
   <g id="patch_5">
    <path d="M 54 252 
L 388.8 252 
" style="fill:none;stroke:#000000;stroke-linecap:square;stroke-linejoin:miter;"/>
   </g>
   <g id="patch_6">
    <path d="M 54 252 
L 54 28.8 
" style="fill:none;stroke:#000000;stroke-linecap:square;stroke-linejoin:miter;"/>
   </g>
  </g>
 </g>
 <defs>
  <clipPath id="pa70bf4b796">
   <rect height="223.2" width="334.8" x="54.0" y="28.8"/>
  </clipPath>
 </defs>
</svg>
