<?xml version="1.0" encoding="utf-8" standalone="no"?>
<!DOCTYPE svg PUBLIC "-//W3C//DTD SVG 1.1//EN"
  "http://www.w3.org/Graphics/SVG/1.1/DTD/svg11.dtd">
<!-- Created with matplotlib (http://matplotlib.org/) -->
<svg height="288pt" version="1.1" viewBox="0 0 432 288" width="432pt" xmlns="http://www.w3.org/2000/svg" xmlns:xlink="http://www.w3.org/1999/xlink">
 <defs>
  <style type="text/css">
*{stroke-linecap:butt;stroke-linejoin:round;stroke-miterlimit:100000;}
  </style>
 </defs>
 <g id="figure_1">
  <g id="patch_1">
   <path d="M 0 288 
L 432 288 
L 432 0 
L 0 0 
z
" style="fill:#ffffff;"/>
  </g>
  <g id="axes_1">
   <g id="patch_2">
    <path d="M 54 252 
L 388.8 252 
L 388.8 28.8 
L 54 28.8 
z
" style="fill:#ffffff;"/>
   </g>
   <g id="line2d_1">
    <path clip-path="url(#p05723fb8c4)" d="M 204.66 52.05 
L 222.613668 56.538417 
L 224.409035 57.274517 
L 242.262162 66.251351 
L 256.625097 75.228185 
L 258.808263 78.747104 
L 267.426023 93.110039 
L 268.302162 94.905405 
L 274.765483 111.063707 
L 275.268185 112.679537 
L 271.677452 121.656371 
L 270.715135 122.177027 
L 249.127645 131.153861 
L 234.76471 135.642278 
L 234.42 136.432239 
L 234.42 144.51139 
L 234.850888 145.409073 
L 256.39529 163.362741 
L 257.946486 165.158108 
L 264.294903 173.237259 
L 267.885637 182.214093 
L 267.9 189.39556 
L 267.9 191.190927 
L 267.684556 191.819305 
L 264.007645 196.307722 
L 256.826178 200.796139 
L 249.328726 203.938031 
L 244.833127 205.733398 
L 230.412741 210.15 
L 212.459073 210.15 
L 211.238224 210.509073 
L 201.543243 214.548649 
L 200.150039 214.99749 
L 182.282548 219.485907 
L 175.101081 223.974324 
L 172.429575 224.872008 
L 160.939228 228.462741 
L 159.890734 228.911583 
L 156.3 233.4 
L 156.3 233.4 
" style="fill:none;stroke:#0000ff;stroke-linecap:square;"/>
   </g>
   <g id="patch_3">
    <path d="M 54 28.8 
L 388.8 28.8 
" style="fill:none;stroke:#000000;stroke-linecap:square;stroke-linejoin:miter;"/>
   </g>
   <g id="patch_4">
    <path d="M 388.8 252 
L 388.8 28.8 
" style="fill:none;stroke:#000000;stroke-linecap:square;stroke-linejoin:miter;"/>
   </g>
   <g id="patch_5">
    <path d="M 54 252 
L 388.8 252 
" style="fill:none;stroke:#000000;stroke-linecap:square;stroke-linejoin:miter;"/>
   </g>
   <g id="patch_6">
    <path d="M 54 252 
L 54 28.8 
" style="fill:none;stroke:#000000;stroke-linecap:square;stroke-linejoin:miter;"/>
   </g>
  </g>
 </g>
 <defs>
  <clipPath id="p05723fb8c4">
   <rect height="223.2" width="334.8" x="54.0" y="28.8"/>
  </clipPath>
 </defs>
</svg>
