<?xml version="1.0" encoding="utf-8" standalone="no"?>
<!DOCTYPE svg PUBLIC "-//W3C//DTD SVG 1.1//EN"
  "http://www.w3.org/Graphics/SVG/1.1/DTD/svg11.dtd">
<!-- Created with matplotlib (http://matplotlib.org/) -->
<svg height="288pt" version="1.1" viewBox="0 0 432 288" width="432pt" xmlns="http://www.w3.org/2000/svg" xmlns:xlink="http://www.w3.org/1999/xlink">
 <defs>
  <style type="text/css">
*{stroke-linecap:butt;stroke-linejoin:round;stroke-miterlimit:100000;}
  </style>
 </defs>
 <g id="figure_1">
  <g id="patch_1">
   <path d="M 0 288 
L 432 288 
L 432 0 
L 0 0 
z
" style="fill:#ffffff;"/>
  </g>
  <g id="axes_1">
   <g id="patch_2">
    <path d="M 54 252 
L 388.8 252 
L 388.8 28.8 
L 54 28.8 
z
" style="fill:#ffffff;"/>
   </g>
   <g id="line2d_1">
    <path clip-path="url(#pbb8078d298)" d="M 313.868571 132.428571 
L 307.779842 101.984925 
L 306.85051 99.341134 
L 294.641005 76.548457 
L 276.374817 61.326633 
L 273.490682 59.363819 
L 240.611543 38.814358 
L 236.958306 36.771429 
L 200.42593 36.771429 
L 197.541795 37.252118 
L 175.622369 44.101938 
L 173.379153 44.983202 
L 161.201694 60.205025 
L 159.567351 61.727207 
L 143.127782 75.426849 
L 141.301163 77.109261 
L 123.034975 99.941996 
L 122.105642 102.225269 
L 116.625786 122.774731 
L 116.177143 125.258291 
L 116.177143 155.701938 
L 117.138521 158.746303 
L 128.098234 186.145585 
L 129.700531 189.430294 
L 154.055449 227.484853 
L 158.029146 229.367552 
L 196.388141 243.067193 
L 200.201608 244.028571 
L 230.645255 244.028571 
L 233.144838 242.666619 
L 255.064264 228.966978 
L 257.756123 227.124336 
L 288.19977 204.291601 
L 291.9171 198.242929 
L 306.53005 173.888011 
L 307.779842 170.48313 
L 313.868571 132.428571 
L 313.868571 132.428571 
" style="fill:none;stroke:#0000ff;stroke-linecap:square;"/>
   </g>
   <g id="patch_3">
    <path d="M 54 28.8 
L 388.8 28.8 
" style="fill:none;stroke:#000000;stroke-linecap:square;stroke-linejoin:miter;"/>
   </g>
   <g id="patch_4">
    <path d="M 388.8 252 
L 388.8 28.8 
" style="fill:none;stroke:#000000;stroke-linecap:square;stroke-linejoin:miter;"/>
   </g>
   <g id="patch_5">
    <path d="M 54 252 
L 388.8 252 
" style="fill:none;stroke:#000000;stroke-linecap:square;stroke-linejoin:miter;"/>
   </g>
   <g id="patch_6">
    <path d="M 54 252 
L 54 28.8 
" style="fill:none;stroke:#000000;stroke-linecap:square;stroke-linejoin:miter;"/>
   </g>
  </g>
 </g>
 <defs>
  <clipPath id="pbb8078d298">
   <rect height="223.2" width="334.8" x="54.0" y="28.8"/>
  </clipPath>
 </defs>
</svg>
