<?xml version="1.0" encoding="utf-8" standalone="no"?>
<!DOCTYPE svg PUBLIC "-//W3C//DTD SVG 1.1//EN"
  "http://www.w3.org/Graphics/SVG/1.1/DTD/svg11.dtd">
<!-- Created with matplotlib (http://matplotlib.org/) -->
<svg height="288pt" version="1.1" viewBox="0 0 432 288" width="432pt" xmlns="http://www.w3.org/2000/svg" xmlns:xlink="http://www.w3.org/1999/xlink">
 <defs>
  <style type="text/css">
*{stroke-linecap:butt;stroke-linejoin:round;stroke-miterlimit:100000;}
  </style>
 </defs>
 <g id="figure_1">
  <g id="patch_1">
   <path d="M 0 288 
L 432 288 
L 432 0 
L 0 0 
z
" style="fill:#ffffff;"/>
  </g>
  <g id="axes_1">
   <g id="patch_2">
    <path d="M 12.96 275.04 
L 419.04 275.04 
L 419.04 12.96 
L 12.96 12.96 
z
" style="fill:#ffffff;"/>
   </g>
   <g id="line2d_1">
    <path clip-path="url(#pdb4a8e8e14)" d="M 148.32 35.712 
L 162.469282 40.530641 
L 189.147029 53.847612 
L 211.049942 62.608777 
L 213.853515 64.36101 
L 224.366913 71.369942 
L 227.65235 73.122175 
L 260.944777 89.768388 
L 261.952311 91.520621 
L 265.456777 98.529553 
L 265.10633 99.40567 
L 256.345165 108.035417 
L 247.584 112.416 
L 225.681087 116.796583 
L 224.104078 117.541282 
L 211.137553 126.302447 
L 202.420194 135.107417 
L 198.039612 148.249165 
L 197.952 150.08901 
L 197.952 157.097942 
L 198.390058 158.193087 
L 206.275107 170.02066 
L 207.238835 171.159612 
L 220.380583 175.540194 
L 240.66268 180.796893 
L 251.176078 184.301359 
L 252.490252 184.870835 
L 265.632 193.632 
L 274.393165 202.393165 
L 274.480777 203.18167 
L 270.056388 216.235806 
L 261.295223 220.616388 
L 257.177476 221.492505 
L 237.683883 225.435029 
L 202.639223 234.196194 
L 200.799379 235.904621 
L 193.790447 242.913553 
L 192.651495 243.526835 
L 180.823922 247.469359 
L 179.641165 248.038835 
L 170.88 256.8 
L 170.88 256.8 
" style="fill:none;stroke:#0099ff;stroke-linecap:square;"/>
   </g>
   <g id="patch_3">
    <path d="M 12.96 12.96 
L 419.04 12.96 
" style="fill:none;stroke:#000000;stroke-linecap:square;stroke-linejoin:miter;"/>
   </g>
   <g id="patch_4">
    <path d="M 419.04 275.04 
L 419.04 12.96 
" style="fill:none;stroke:#000000;stroke-linecap:square;stroke-linejoin:miter;"/>
   </g>
   <g id="patch_5">
    <path d="M 12.96 275.04 
L 419.04 275.04 
" style="fill:none;stroke:#000000;stroke-linecap:square;stroke-linejoin:miter;"/>
   </g>
   <g id="patch_6">
    <path d="M 12.96 275.04 
L 12.96 12.96 
" style="fill:none;stroke:#000000;stroke-linecap:square;stroke-linejoin:miter;"/>
   </g>
  </g>
 </g>
 <defs>
  <clipPath id="pdb4a8e8e14">
   <rect height="262.08" width="406.08" x="12.96" y="12.96"/>
  </clipPath>
 </defs>
</svg>
