<?xml version="1.0" encoding="utf-8" standalone="no"?>
<!DOCTYPE svg PUBLIC "-//W3C//DTD SVG 1.1//EN"
  "http://www.w3.org/Graphics/SVG/1.1/DTD/svg11.dtd">
<!-- Created with matplotlib (http://matplotlib.org/) -->
<svg height="288pt" version="1.1" viewBox="0 0 432 288" width="432pt" xmlns="http://www.w3.org/2000/svg" xmlns:xlink="http://www.w3.org/1999/xlink">
 <defs>
  <style type="text/css">
*{stroke-linecap:butt;stroke-linejoin:round;stroke-miterlimit:100000;}
  </style>
 </defs>
 <g id="figure_1">
  <g id="patch_1">
   <path d="M 0 288 
L 432 288 
L 432 0 
L 0 0 
z
" style="fill:#ffffff;"/>
  </g>
  <g id="axes_1">
   <g id="patch_2">
    <path d="M 12.96 275.04 
L 419.04 275.04 
L 419.04 12.96 
L 12.96 12.96 
z
" style="fill:#ffffff;"/>
   </g>
   <g id="line2d_1">
    <path clip-path="url(#p6685f7fd21)" d="M 150.576 35.712 
L 155.802255 71.581529 
L 159.6 94.855784 
L 159.6 112.276633 
L 161.742764 125.272587 
L 164.355892 140.707459 
L 168.711104 162.309313 
L 173.066317 175.37495 
L 174.808402 178.928803 
L 177.421529 184.155058 
L 178.0661 185.0261 
L 191.079475 198.039475 
L 191.845992 198.144 
L 199.685375 198.144 
L 200.556417 197.969792 
L 209.249421 193.579737 
L 214.040154 178.911382 
L 218.534734 161.351166 
L 227.245158 139.575104 
L 229.840865 138.634378 
L 240.293375 135.150208 
L 241.338625 134.976 
L 249.178008 134.976 
L 250.04905 135.18505 
L 258.759475 143.895475 
L 259.68278 146.45634 
L 267.888 171.28105 
L 267.888 184.346687 
L 269.455876 188.527691 
L 277.103629 207.934517 
L 281.458842 225.320525 
L 286.249575 239.379151 
L 294.96 256.8 
L 294.96 256.8 
" style="fill:none;stroke:#000000;stroke-linecap:square;stroke-width:8.0;"/>
   </g>
   <g id="patch_3">
    <path d="M 12.96 12.96 
L 419.04 12.96 
" style="fill:none;stroke:#000000;stroke-linecap:square;stroke-linejoin:miter;"/>
   </g>
   <g id="patch_4">
    <path d="M 419.04 275.04 
L 419.04 12.96 
" style="fill:none;stroke:#000000;stroke-linecap:square;stroke-linejoin:miter;"/>
   </g>
   <g id="patch_5">
    <path d="M 12.96 275.04 
L 419.04 275.04 
" style="fill:none;stroke:#000000;stroke-linecap:square;stroke-linejoin:miter;"/>
   </g>
   <g id="patch_6">
    <path d="M 12.96 275.04 
L 12.96 12.96 
" style="fill:none;stroke:#000000;stroke-linecap:square;stroke-linejoin:miter;"/>
   </g>
  </g>
 </g>
 <defs>
  <clipPath id="p6685f7fd21">
   <rect height="262.08" width="406.08" x="12.96" y="12.96"/>
  </clipPath>
 </defs>
</svg>
