<?xml version="1.0" encoding="utf-8" standalone="no"?>
<!DOCTYPE svg PUBLIC "-//W3C//DTD SVG 1.1//EN"
  "http://www.w3.org/Graphics/SVG/1.1/DTD/svg11.dtd">
<!-- Created with matplotlib (http://matplotlib.org/) -->
<svg height="288pt" version="1.1" viewBox="0 0 432 288" width="432pt" xmlns="http://www.w3.org/2000/svg" xmlns:xlink="http://www.w3.org/1999/xlink">
 <defs>
  <style type="text/css">
*{stroke-linecap:butt;stroke-linejoin:round;stroke-miterlimit:100000;}
  </style>
 </defs>
 <g id="figure_1">
  <g id="patch_1">
   <path d="M 0 288 
L 432 288 
L 432 0 
L 0 0 
z
" style="fill:#ffffff;"/>
  </g>
  <g id="axes_1">
   <g id="patch_2">
    <path d="M 54 252 
L 388.8 252 
L 388.8 28.8 
L 54 28.8 
z
" style="fill:#ffffff;"/>
   </g>
   <g id="line2d_1">
    <path clip-path="url(#p14824b9d18)" d="M 138.497143 28.8 
L 162.72316 28.8 
L 166.28581 29.156265 
L 214.737845 36.726895 
L 219.725555 39.710615 
L 239.106369 51.823623 
L 241.52897 53.026018 
L 265.754988 60.596648 
L 267.643192 62.689705 
L 283.995754 83.130407 
L 285.812706 85.134397 
L 303.982219 100.275658 
L 304.801628 103.036712 
L 310.858132 133.096568 
L 316.914637 155.80846 
L 317.057143 158.079649 
L 317.057143 178.520351 
L 316.772131 180.613408 
L 304.659122 195.754669 
L 303.020303 197.268795 
L 286.667741 210.89593 
L 284.743911 212.276457 
L 260.517893 219.847087 
L 257.7034 221.094014 
L 230.44913 234.721149 
L 227.420878 236.057143 
L 163.898835 236.101676 
L 145.729322 243.672306 
L 143.91237 244.028571 
L 125.742857 244.028571 
L 125.742857 244.028571 
" style="fill:none;stroke:#0000ff;stroke-linecap:square;"/>
   </g>
   <g id="patch_3">
    <path d="M 54 28.8 
L 388.8 28.8 
" style="fill:none;stroke:#000000;stroke-linecap:square;stroke-linejoin:miter;"/>
   </g>
   <g id="patch_4">
    <path d="M 388.8 252 
L 388.8 28.8 
" style="fill:none;stroke:#000000;stroke-linecap:square;stroke-linejoin:miter;"/>
   </g>
   <g id="patch_5">
    <path d="M 54 252 
L 388.8 252 
" style="fill:none;stroke:#000000;stroke-linecap:square;stroke-linejoin:miter;"/>
   </g>
   <g id="patch_6">
    <path d="M 54 252 
L 54 28.8 
" style="fill:none;stroke:#000000;stroke-linecap:square;stroke-linejoin:miter;"/>
   </g>
  </g>
 </g>
 <defs>
  <clipPath id="p14824b9d18">
   <rect height="223.2" width="334.8" x="54.0" y="28.8"/>
  </clipPath>
 </defs>
</svg>
