<?xml version="1.0" encoding="utf-8" standalone="no"?>
<!DOCTYPE svg PUBLIC "-//W3C//DTD SVG 1.1//EN"
  "http://www.w3.org/Graphics/SVG/1.1/DTD/svg11.dtd">
<!-- Created with matplotlib (http://matplotlib.org/) -->
<svg height="288pt" version="1.1" viewBox="0 0 432 288" width="432pt" xmlns="http://www.w3.org/2000/svg" xmlns:xlink="http://www.w3.org/1999/xlink">
 <defs>
  <style type="text/css">
*{stroke-linecap:butt;stroke-linejoin:round;stroke-miterlimit:100000;}
  </style>
 </defs>
 <g id="figure_1">
  <g id="patch_1">
   <path d="M 0 288 
L 432 288 
L 432 0 
L 0 0 
z
" style="fill:#ffffff;"/>
  </g>
  <g id="axes_1">
   <g id="patch_2">
    <path d="M 12.96 275.04 
L 419.04 275.04 
L 419.04 12.96 
L 12.96 12.96 
z
" style="fill:#ffffff;"/>
   </g>
   <g id="line2d_1">
    <path clip-path="url(#pce7479c514)" d="M 124.272 47.904 
L 157.952964 81.584964 
L 159.847518 82.848 
L 185.108241 82.848 
L 191.739181 81.269205 
L 218.683952 74.533012 
L 221.210024 72.848964 
L 238.155759 47.588241 
L 263.416482 22.327518 
L 265.942554 21.064482 
L 288.677205 13.486265 
L 291.203277 13.275759 
L 316.464 21.696 
L 341.724723 46.956723 
L 342.672 51.06159 
L 342.672 96.530892 
L 342.461494 101.37253 
L 334.041253 143.473735 
L 331.725687 147.683855 
L 308.991036 185.57494 
L 306.464964 189.364048 
L 283.730313 219.676916 
L 281.098988 222.939759 
L 247.418024 248.200482 
L 243.41841 249.463518 
L 205.527325 257.041735 
L 201.317205 257.568 
L 159.216 257.568 
L 125.535036 240.727518 
L 122.16694 238.517205 
L 91.854072 215.782554 
L 88.906988 213.256482 
L 72.066506 187.995759 
L 71.119229 181.785831 
L 63.541012 121.160096 
L 63.12 115.68694 
L 63.12 77.795855 
L 63.330506 73.796241 
L 80.170988 48.535518 
L 81.855036 47.272482 
L 97.01147 39.694265 
L 99.011277 39.483759 
L 124.272 47.904 
L 124.272 47.904 
" style="fill:none;stroke:#0099ff;stroke-linecap:square;"/>
   </g>
   <g id="patch_3">
    <path d="M 12.96 12.96 
L 419.04 12.96 
" style="fill:none;stroke:#000000;stroke-linecap:square;stroke-linejoin:miter;"/>
   </g>
   <g id="patch_4">
    <path d="M 419.04 275.04 
L 419.04 12.96 
" style="fill:none;stroke:#000000;stroke-linecap:square;stroke-linejoin:miter;"/>
   </g>
   <g id="patch_5">
    <path d="M 12.96 275.04 
L 419.04 275.04 
" style="fill:none;stroke:#000000;stroke-linecap:square;stroke-linejoin:miter;"/>
   </g>
   <g id="patch_6">
    <path d="M 12.96 275.04 
L 12.96 12.96 
" style="fill:none;stroke:#000000;stroke-linecap:square;stroke-linejoin:miter;"/>
   </g>
  </g>
 </g>
 <defs>
  <clipPath id="pce7479c514">
   <rect height="262.08" width="406.08" x="12.96" y="12.96"/>
  </clipPath>
 </defs>
</svg>
