<?xml version="1.0" encoding="utf-8" standalone="no"?>
<!DOCTYPE svg PUBLIC "-//W3C//DTD SVG 1.1//EN"
  "http://www.w3.org/Graphics/SVG/1.1/DTD/svg11.dtd">
<!-- Created with matplotlib (http://matplotlib.org/) -->
<svg height="288pt" version="1.1" viewBox="0 0 432 288" width="432pt" xmlns="http://www.w3.org/2000/svg" xmlns:xlink="http://www.w3.org/1999/xlink">
 <defs>
  <style type="text/css">
*{stroke-linecap:butt;stroke-linejoin:round;stroke-miterlimit:100000;}
  </style>
 </defs>
 <g id="figure_1">
  <g id="patch_1">
   <path d="M 0 288 
L 432 288 
L 432 0 
L 0 0 
z
" style="fill:#ffffff;"/>
  </g>
  <g id="axes_1">
   <g id="patch_2">
    <path d="M 12.96 275.04 
L 419.04 275.04 
L 419.04 12.96 
L 12.96 12.96 
z
" style="fill:#ffffff;"/>
   </g>
   <g id="line2d_1">
    <path clip-path="url(#p2781bb1aad)" d="M 274.656 35.712 
L 269.429745 71.581529 
L 265.074533 98.27027 
L 260.71932 128.356077 
L 256.799629 151.874224 
L 256.364108 153.511784 
L 252.444417 161.351166 
L 251.834687 162.048 
L 238.76905 162.048 
L 237.828324 160.584649 
L 229.988942 144.905884 
L 229.32695 143.163799 
L 224.971737 125.847475 
L 211.139583 98.357375 
L 202.411737 85.309158 
L 189.3461 76.598734 
L 188.335691 76.32 
L 180.496309 76.32 
L 179.4859 76.459367 
L 166.420263 80.814579 
L 162.918672 86.005992 
L 157.692417 93.845375 
L 157.082687 95.151938 
L 153.162996 106.911012 
L 152.832 108.426625 
L 152.832 130.202687 
L 154.086301 136.735506 
L 157.13495 151.978749 
L 157.796942 153.929884 
L 175.217792 188.771583 
L 176.175938 189.903938 
L 179.660108 193.388108 
L 180.478888 194.590147 
L 193.474842 216.296525 
L 206.976 256.8 
L 206.976 256.8 
" style="fill:none;stroke:#0099ff;stroke-linecap:square;"/>
   </g>
   <g id="patch_3">
    <path d="M 12.96 12.96 
L 419.04 12.96 
" style="fill:none;stroke:#000000;stroke-linecap:square;stroke-linejoin:miter;"/>
   </g>
   <g id="patch_4">
    <path d="M 419.04 275.04 
L 419.04 12.96 
" style="fill:none;stroke:#000000;stroke-linecap:square;stroke-linejoin:miter;"/>
   </g>
   <g id="patch_5">
    <path d="M 12.96 275.04 
L 419.04 275.04 
" style="fill:none;stroke:#000000;stroke-linecap:square;stroke-linejoin:miter;"/>
   </g>
   <g id="patch_6">
    <path d="M 12.96 275.04 
L 12.96 12.96 
" style="fill:none;stroke:#000000;stroke-linecap:square;stroke-linejoin:miter;"/>
   </g>
  </g>
 </g>
 <defs>
  <clipPath id="p2781bb1aad">
   <rect height="262.08" width="406.08" x="12.96" y="12.96"/>
  </clipPath>
 </defs>
</svg>
