<?xml version="1.0" encoding="utf-8" standalone="no"?>
<!DOCTYPE svg PUBLIC "-//W3C//DTD SVG 1.1//EN"
  "http://www.w3.org/Graphics/SVG/1.1/DTD/svg11.dtd">
<!-- Created with matplotlib (http://matplotlib.org/) -->
<svg height="288pt" version="1.1" viewBox="0 0 432 288" width="432pt" xmlns="http://www.w3.org/2000/svg" xmlns:xlink="http://www.w3.org/1999/xlink">
 <defs>
  <style type="text/css">
*{stroke-linecap:butt;stroke-linejoin:round;stroke-miterlimit:100000;}
  </style>
 </defs>
 <g id="figure_1">
  <g id="patch_1">
   <path d="M 0 288 
L 432 288 
L 432 0 
L 0 0 
z
" style="fill:#ffffff;"/>
  </g>
  <g id="axes_1">
   <g id="patch_2">
    <path d="M 12.96 275.04 
L 419.04 275.04 
L 419.04 12.96 
L 12.96 12.96 
z
" style="fill:#ffffff;"/>
   </g>
   <g id="line2d_1">
    <path clip-path="url(#p13aea06ac4)" d="M 209.232 150.768 
L 209.232 137.553435 
L 208.731989 135.731968 
L 202.785435 117.892306 
L 201.785414 116.249414 
L 189.892306 104.356306 
L 188.392274 103.03485 
L 168.588285 89.838142 
L 155.37372 83.23086 
L 152.730807 80.730807 
L 142.159156 70.159156 
L 141.19485 68.480549 
L 135.248296 50.640887 
L 135.176865 48.855135 
L 148.46286 35.676285 
L 174.891989 29.069003 
L 176.999177 29.479726 
L 194.838839 35.42628 
L 196.821024 36.462016 
L 236.411145 62.891145 
L 262.840274 89.320274 
L 263.768865 90.641731 
L 270.376148 104.088443 
L 276.98343 123.83886 
L 283.590712 137.053425 
L 286.233625 144.892876 
L 290.197995 156.785984 
L 290.448 158.768169 
L 290.448 176.607831 
L 290.197995 178.590016 
L 283.590712 198.322575 
L 276.98343 211.53714 
L 273.090491 215.501509 
L 263.840296 224.751704 
L 262.518839 226.501741 
L 250.625731 244.341404 
L 249.036412 245.787863 
L 229.214565 252.50229 
L 209.392718 265.716855 
L 204.160464 265.824 
L 162.981024 265.824 
L 160.998839 265.53828 
L 143.159177 259.591726 
L 141.301995 258.805995 
L 128.08743 245.59143 
L 128.016 241.662776 
L 128.016 225.805298 
L 128.480296 224.287409 
L 134.42685 212.394301 
L 135.391156 211.376422 
L 148.74858 204.76914 
L 168.570427 198.161858 
L 175.195567 191.572433 
L 181.80285 184.96515 
L 183.124306 184.125847 
L 195.017414 178.179293 
L 196.017435 177.197129 
L 209.232 150.768 
L 209.232 150.768 
" style="fill:none;stroke:#0099ff;stroke-linecap:square;"/>
   </g>
   <g id="patch_3">
    <path d="M 12.96 12.96 
L 419.04 12.96 
" style="fill:none;stroke:#000000;stroke-linecap:square;stroke-linejoin:miter;"/>
   </g>
   <g id="patch_4">
    <path d="M 419.04 275.04 
L 419.04 12.96 
" style="fill:none;stroke:#000000;stroke-linecap:square;stroke-linejoin:miter;"/>
   </g>
   <g id="patch_5">
    <path d="M 12.96 275.04 
L 419.04 275.04 
" style="fill:none;stroke:#000000;stroke-linecap:square;stroke-linejoin:miter;"/>
   </g>
   <g id="patch_6">
    <path d="M 12.96 275.04 
L 12.96 12.96 
" style="fill:none;stroke:#000000;stroke-linecap:square;stroke-linejoin:miter;"/>
   </g>
  </g>
 </g>
 <defs>
  <clipPath id="p13aea06ac4">
   <rect height="262.08" width="406.08" x="12.96" y="12.96"/>
  </clipPath>
 </defs>
</svg>
