<?xml version="1.0" encoding="utf-8" standalone="no"?>
<!DOCTYPE svg PUBLIC "-//W3C//DTD SVG 1.1//EN"
  "http://www.w3.org/Graphics/SVG/1.1/DTD/svg11.dtd">
<!-- Created with matplotlib (http://matplotlib.org/) -->
<svg height="288pt" version="1.1" viewBox="0 0 432 288" width="432pt" xmlns="http://www.w3.org/2000/svg" xmlns:xlink="http://www.w3.org/1999/xlink">
 <defs>
  <style type="text/css">
*{stroke-linecap:butt;stroke-linejoin:round;stroke-miterlimit:100000;}
  </style>
 </defs>
 <g id="figure_1">
  <g id="patch_1">
   <path d="M 0 288 
L 432 288 
L 432 0 
L 0 0 
z
" style="fill:#ffffff;"/>
  </g>
  <g id="axes_1">
   <g id="patch_2">
    <path d="M 12.96 275.04 
L 419.04 275.04 
L 419.04 12.96 
L 12.96 12.96 
z
" style="fill:#ffffff;"/>
   </g>
   <g id="line2d_1">
    <path clip-path="url(#p7f14833285)" d="M 186.516 124.344 
L 180.183212 105.345636 
L 178.916654 102.593309 
L 173.850424 92.460848 
L 173.412 90.999435 
L 173.412 53.002706 
L 174.19142 51.10287 
L 185.590439 34.004342 
L 187.197993 32.275004 
L 212.529145 19.609428 
L 214.477695 20.096565 
L 231.576223 25.796074 
L 233.110706 26.794706 
L 245.776283 39.606424 
L 271.107435 77.603152 
L 272.032996 79.843985 
L 278.365784 105.296922 
L 284.698572 136.960862 
L 284.796 143.293651 
L 284.796 168.624803 
L 284.479361 171.791197 
L 278.049145 203.552565 
L 265.383569 241.549294 
L 262.582528 243.814483 
L 234.084981 260.913011 
L 230.918587 262.228283 
L 202.421041 267.927792 
L 199.327717 268.341859 
L 173.996565 255.676283 
L 172.437725 253.922587 
L 161.038706 236.824059 
L 160.040074 234.924223 
L 153.756 215.925859 
L 153.756 196.927494 
L 154.218781 195.027658 
L 160.551569 176.272862 
L 166.908714 163.631643 
L 179.57429 157.298855 
L 180.402424 156.227152 
L 186.101933 144.828134 
L 186.516 143.342364 
L 186.516 124.344 
L 186.516 124.344 
" style="fill:none;stroke:#000000;stroke-linecap:square;stroke-width:8.0;"/>
   </g>
   <g id="patch_3">
    <path d="M 12.96 12.96 
L 419.04 12.96 
" style="fill:none;stroke:#000000;stroke-linecap:square;stroke-linejoin:miter;"/>
   </g>
   <g id="patch_4">
    <path d="M 419.04 275.04 
L 419.04 12.96 
" style="fill:none;stroke:#000000;stroke-linecap:square;stroke-linejoin:miter;"/>
   </g>
   <g id="patch_5">
    <path d="M 12.96 275.04 
L 419.04 275.04 
" style="fill:none;stroke:#000000;stroke-linecap:square;stroke-linejoin:miter;"/>
   </g>
   <g id="patch_6">
    <path d="M 12.96 275.04 
L 12.96 12.96 
" style="fill:none;stroke:#000000;stroke-linecap:square;stroke-linejoin:miter;"/>
   </g>
  </g>
 </g>
 <defs>
  <clipPath id="p7f14833285">
   <rect height="262.08" width="406.08" x="12.96" y="12.96"/>
  </clipPath>
 </defs>
</svg>
