<?xml version="1.0" encoding="utf-8" standalone="no"?>
<!DOCTYPE svg PUBLIC "-//W3C//DTD SVG 1.1//EN"
  "http://www.w3.org/Graphics/SVG/1.1/DTD/svg11.dtd">
<!-- Created with matplotlib (http://matplotlib.org/) -->
<svg height="288pt" version="1.1" viewBox="0 0 432 288" width="432pt" xmlns="http://www.w3.org/2000/svg" xmlns:xlink="http://www.w3.org/1999/xlink">
 <defs>
  <style type="text/css">
*{stroke-linecap:butt;stroke-linejoin:round;stroke-miterlimit:100000;}
  </style>
 </defs>
 <g id="figure_1">
  <g id="patch_1">
   <path d="M 0 288 
L 432 288 
L 432 0 
L 0 0 
z
" style="fill:#ffffff;"/>
  </g>
  <g id="axes_1">
   <g id="patch_2">
    <path d="M 54 252 
L 388.8 252 
L 388.8 28.8 
L 54 28.8 
z
" style="fill:#ffffff;"/>
   </g>
   <g id="line2d_1">
    <path clip-path="url(#p25f47375e1)" d="M 128.931429 252 
L 135.033958 229.115516 
L 135.97985 226.827068 
L 148.123882 203.866302 
L 154.226411 173.353657 
L 156.453835 164.733835 
L 167.316336 124.152016 
L 186.691866 75.942037 
L 198.896924 53.057553 
L 200.636145 51.417498 
L 218.699631 36.466302 
L 230.904689 28.838141 
L 236.366452 28.8 
L 249.181763 28.8 
L 251.012522 29.181408 
L 269.259084 36.84771 
L 275.361613 52.104033 
L 276.582119 56.375803 
L 282.074395 76.857416 
L 288.176924 92.113739 
L 289.39743 97.758578 
L 294.889706 125.029255 
L 300.992235 147.913739 
L 301.114286 151.422693 
L 301.114286 185.749419 
L 301.541463 189.029528 
L 313.746521 211.914012 
L 315.028052 216.490909 
L 320.520328 236.743677 
L 326.622857 252 
L 326.622857 252 
" style="fill:none;stroke:#0000ff;stroke-linecap:square;"/>
   </g>
   <g id="patch_3">
    <path d="M 54 28.8 
L 388.8 28.8 
" style="fill:none;stroke:#000000;stroke-linecap:square;stroke-linejoin:miter;"/>
   </g>
   <g id="patch_4">
    <path d="M 388.8 252 
L 388.8 28.8 
" style="fill:none;stroke:#000000;stroke-linecap:square;stroke-linejoin:miter;"/>
   </g>
   <g id="patch_5">
    <path d="M 54 252 
L 388.8 252 
" style="fill:none;stroke:#000000;stroke-linecap:square;stroke-linejoin:miter;"/>
   </g>
   <g id="patch_6">
    <path d="M 54 252 
L 54 28.8 
" style="fill:none;stroke:#000000;stroke-linecap:square;stroke-linejoin:miter;"/>
   </g>
  </g>
 </g>
 <defs>
  <clipPath id="p25f47375e1">
   <rect height="223.2" width="334.8" x="54.0" y="28.8"/>
  </clipPath>
 </defs>
</svg>
