<?xml version="1.0" encoding="utf-8" standalone="no"?>
<!DOCTYPE svg PUBLIC "-//W3C//DTD SVG 1.1//EN"
  "http://www.w3.org/Graphics/SVG/1.1/DTD/svg11.dtd">
<!-- Created with matplotlib (http://matplotlib.org/) -->
<svg height="288pt" version="1.1" viewBox="0 0 432 288" width="432pt" xmlns="http://www.w3.org/2000/svg" xmlns:xlink="http://www.w3.org/1999/xlink">
 <defs>
  <style type="text/css">
*{stroke-linecap:butt;stroke-linejoin:round;stroke-miterlimit:100000;}
  </style>
 </defs>
 <g id="figure_1">
  <g id="patch_1">
   <path d="M 0 288 
L 432 288 
L 432 0 
L 0 0 
z
" style="fill:#ffffff;"/>
  </g>
  <g id="axes_1">
   <g id="patch_2">
    <path d="M 12.96 275.04 
L 419.04 275.04 
L 419.04 12.96 
L 12.96 12.96 
z
" style="fill:#ffffff;"/>
   </g>
   <g id="line2d_1">
    <path clip-path="url(#pb1f3f18214)" d="M 283.68 35.712 
L 255.880258 45.027097 
L 233.17471 54.196645 
L 225.315097 58.126452 
L 220.657548 59.727484 
L 197.369806 67.587097 
L 179.904 76.32 
L 171.171097 89.419355 
L 169.424516 92.766968 
L 162.438194 106.739613 
L 161.710452 108.486194 
L 152.977548 143.417806 
L 153.123097 144.87329 
L 157.052903 156.66271 
L 157.926194 157.827097 
L 175.392 166.56 
L 190.092387 171.363097 
L 207.412645 175.729548 
L 220.512 180.096 
L 233.611355 188.828903 
L 234.339097 189.99329 
L 238.268903 201.78271 
L 238.414452 202.801548 
L 234.048 207.168 
L 220.948645 211.534452 
L 216.87329 212.407742 
L 197.660903 216.337548 
L 188.928 220.704 
L 184.561548 229.436903 
L 184.416 230.310194 
L 184.416 238.169806 
L 184.707097 238.897548 
L 220.512 256.8 
L 220.512 256.8 
" style="fill:none;stroke:#0099ff;stroke-linecap:square;"/>
   </g>
   <g id="patch_3">
    <path d="M 12.96 12.96 
L 419.04 12.96 
" style="fill:none;stroke:#000000;stroke-linecap:square;stroke-linejoin:miter;"/>
   </g>
   <g id="patch_4">
    <path d="M 419.04 275.04 
L 419.04 12.96 
" style="fill:none;stroke:#000000;stroke-linecap:square;stroke-linejoin:miter;"/>
   </g>
   <g id="patch_5">
    <path d="M 12.96 275.04 
L 419.04 275.04 
" style="fill:none;stroke:#000000;stroke-linecap:square;stroke-linejoin:miter;"/>
   </g>
   <g id="patch_6">
    <path d="M 12.96 275.04 
L 12.96 12.96 
" style="fill:none;stroke:#000000;stroke-linecap:square;stroke-linejoin:miter;"/>
   </g>
  </g>
 </g>
 <defs>
  <clipPath id="pb1f3f18214">
   <rect height="262.08" width="406.08" x="12.96" y="12.96"/>
  </clipPath>
 </defs>
</svg>
